<svg width="190" height="190" viewBox="0 0 190 190" fill="none" xmlns="http://www.w3.org/2000/svg">
<g clip-path="url(#clip0_1_945)">
<path fill-rule="evenodd" clip-rule="evenodd" d="M190.484 95.094C190.484 147.561 147.951 190.094 95.4844 190.094C43.0173 190.094 0.484375 147.561 0.484375 95.094C0.484375 42.6269 43.0173 0.0939941 95.4844 0.0939941C147.951 0.0939941 190.484 42.6269 190.484 95.094Z" fill="white"/>
<path fill-rule="evenodd" clip-rule="evenodd" d="M82.3023 129.395C85.1493 126.109 87.1716 122.026 88.2533 117.651C89.4693 112.729 89.6615 107.316 92.6531 103.222C96.3217 98.2013 102.999 96.7097 108.564 93.9375C133.66 81.4385 132.579 43.195 107.128 31.6994C95.689 26.5342 82.1713 28.2333 70.504 32.8628C59.3827 37.2746 49.2137 44.3158 41.7457 53.6649C34.2776 63.0123 29.6107 74.7103 29.33 86.6735C29.177 93.2521 30.325 99.8187 32.2247 106.12C33.6619 110.889 35.7828 117.255 41.0739 123.437C43.0927 125.796 55.3433 139.53 69.9036 136.697C74.9515 135.715 79.1371 133.048 82.3023 129.395Z" fill="#FEF6E5"/>
<path fill-rule="evenodd" clip-rule="evenodd" d="M61.103 124.635C58.9992 120.987 60.251 116.325 63.8991 114.221C67.5456 112.117 72.2091 113.367 74.3129 117.015C76.4168 120.663 75.165 125.325 71.5169 127.431C67.8704 129.535 63.2069 128.283 61.103 124.635Z" fill="#D5540A"/>
<path fill-rule="evenodd" clip-rule="evenodd" d="M40.8013 106.974C38.9491 103.765 40.0512 99.6627 43.2606 97.8105C46.4699 95.9601 50.5722 97.0605 52.4243 100.27C54.2748 103.481 53.1744 107.583 49.965 109.434C46.7557 111.286 42.6517 110.184 40.8013 106.974Z" fill="#D80E21"/>
<path fill-rule="evenodd" clip-rule="evenodd" d="M43.8247 83.8893C41.9726 80.68 43.0747 76.5777 46.284 74.7256C49.4934 72.8751 53.5956 73.9755 55.4478 77.1849C57.2982 80.3942 56.1978 84.4982 52.9885 86.3486C49.7791 88.1991 45.6768 87.0987 43.8247 83.8893Z" fill="#EE5021"/>
<path fill-rule="evenodd" clip-rule="evenodd" d="M56.5317 61.2245C54.6796 58.0152 55.7817 53.9129 58.991 52.0608C62.2004 50.2103 66.3027 51.3107 68.1548 54.5201C70.0052 57.7311 68.9048 61.8334 65.6955 63.6838C62.4861 65.5343 58.3839 64.4339 56.5317 61.2245Z" fill="#FCBB44"/>
<path fill-rule="evenodd" clip-rule="evenodd" d="M80.7583 49.8883C78.9061 46.679 80.0082 42.5767 83.2176 40.7246C86.427 38.8741 90.5292 39.9745 92.3814 43.1839C94.2318 46.3932 93.1314 50.4972 89.922 52.3476C86.711 54.1998 82.6087 53.0977 80.7583 49.8883Z" fill="#4EB763"/>
<path fill-rule="evenodd" clip-rule="evenodd" d="M102.872 61.3094C101.019 58.1 102.122 53.9977 105.331 52.1456C108.54 50.2952 112.643 51.3956 114.495 54.6049C116.345 57.8143 115.245 61.9182 112.035 63.7687C108.826 65.6191 104.724 64.5187 102.872 61.3094Z" fill="#13ABD1"/>
<path fill-rule="evenodd" clip-rule="evenodd" d="M101.133 159.754L102.556 160.617C104.053 161.523 105.917 161.043 106.7 159.55L140.485 91.6553C141.472 89.7726 141.773 88.6211 139.885 87.4765C137.995 86.3336 137.009 87.1041 136.023 88.9885L99.8301 155.39C99.0495 156.883 99.6362 158.848 101.133 159.754Z" fill="#EFC1B3"/>
<path fill-rule="evenodd" clip-rule="evenodd" d="M138.437 77.9856C139.821 75.3426 141.583 74.3511 143.027 73.0415C147.696 68.8015 147.313 62.7739 148.51 62.9882C149.553 63.177 149.716 67.7402 149.965 74.698C150.126 79.2289 150.014 82.593 148.216 84.8431C147.07 86.2769 145.674 87.0269 145.674 87.0269C144.912 87.4351 144.054 87.6511 142.343 88.0831C140.949 88.4352 140.245 88.6103 139.942 88.5168C138.143 87.9624 137.088 84.4826 137.28 81.7579C137.307 81.3821 137.437 79.8956 138.437 77.9856Z" fill="#9C803B"/>
<path fill-rule="evenodd" clip-rule="evenodd" d="M139.982 91.4727L136.473 89.2702C136.041 88.9981 135.881 88.4283 136.116 87.9963L137.368 85.702C137.604 85.27 138.145 85.1407 138.579 85.4129L142.086 87.6154C142.519 87.8875 142.679 88.4572 142.445 88.8875L141.191 91.1836C140.956 91.6156 140.416 91.7448 139.982 91.4727Z" fill="#BF9C5C"/>
<path fill-rule="evenodd" clip-rule="evenodd" d="M143.389 73.3733C143.481 73.3477 143.583 73.3307 143.675 73.3733C143.872 73.4617 143.888 73.7423 143.867 73.9583C143.781 74.8682 143.651 75.773 143.481 76.6677C143.388 77.1558 143.386 77.8361 143.855 78.0011C144.151 78.1048 144.444 77.9092 144.66 77.7C144.983 77.3888 145.264 77.0214 145.645 76.785C146.024 76.5469 146.553 76.4721 146.932 76.7595C147.34 77.0673 147.42 77.6473 147.464 78.1541C147.51 78.7205 147.558 79.2851 147.606 79.8498C147.655 80.4417 147.73 81.0931 148.155 81.5183C148.539 81.9026 149.121 81.969 149.609 81.804C150.06 79.877 150.065 77.5129 149.965 74.6982C149.716 67.7403 149.553 63.1771 148.51 62.9883C147.313 62.7741 147.696 68.8016 143.027 73.0416C142.646 73.3869 142.241 73.7117 141.828 74.0502C142.362 73.9294 142.842 73.5212 143.389 73.3733Z" fill="#13ABD1"/>
</g>
<defs>
<clipPath id="clip0_1_945">
<rect width="190" height="190" fill="white"/>
</clipPath>
</defs>
</svg>
