<svg width="190" height="190" viewBox="0 0 190 190" fill="none" xmlns="http://www.w3.org/2000/svg">
<path fill-rule="evenodd" clip-rule="evenodd" d="M189.15 94.8516C189.15 147.185 147.101 189.609 95.2313 189.609C43.3613 189.609 1.3125 147.185 1.3125 94.8516C1.3125 42.5185 43.3613 0.0942383 95.2313 0.0942383C147.101 0.0942383 189.15 42.5185 189.15 94.8516Z" fill="white"/>
<path fill-rule="evenodd" clip-rule="evenodd" d="M121.139 156.479C120.826 156.574 120.512 156.662 120.196 156.744C112.51 158.756 103.555 159.22 95.6032 159.241C86.194 159.265 73.691 159.227 65.7412 153.926C64.1035 152.832 62.5835 151.488 61.7781 149.77C58.7297 143.259 64.4751 133.732 69.2806 129.178C74.6443 124.096 82.0947 121.188 89.7569 121.188H100.866C116.703 121.188 129.541 133.116 129.541 147.829C129.541 152.598 125.566 155.142 121.139 156.479Z" fill="#E4D499"/>
<path fill-rule="evenodd" clip-rule="evenodd" d="M116.978 136.518C116.716 136.598 116.452 136.671 116.186 136.741C109.734 138.429 102.217 138.819 95.5431 138.836C87.6438 138.856 77.1484 138.824 70.4766 134.374C69.1012 133.458 67.825 132.328 67.1491 130.886C64.5899 125.42 69.4139 117.423 73.4477 113.601C77.9488 109.337 84.2037 106.895 90.6351 106.895H99.9602C113.253 106.895 124.03 116.906 124.03 129.258C124.03 133.261 120.694 135.397 116.978 136.518Z" fill="#502425"/>
<path fill-rule="evenodd" clip-rule="evenodd" d="M114.268 119.321C114.037 119.39 113.807 119.455 113.575 119.516C107.927 120.993 101.346 121.334 95.5049 121.35C88.5892 121.367 79.402 121.339 73.5624 117.444C72.3585 116.642 71.2404 115.653 70.6502 114.391C68.4089 109.607 72.6326 102.606 76.1636 99.2604C80.1031 95.5265 85.5795 93.389 91.2089 93.389H99.3721C111.008 93.389 120.442 102.153 120.442 112.964C120.442 116.469 117.52 118.338 114.268 119.321Z" fill="#E4D499"/>
<path fill-rule="evenodd" clip-rule="evenodd" d="M110.013 100.437C109.835 100.495 109.655 100.551 109.475 100.601C105.09 101.848 99.9782 102.135 95.4417 102.149C90.0713 102.162 82.937 102.14 78.4006 98.8541C77.4657 98.1772 76.5981 97.3443 76.1391 96.2789C74.3988 92.2431 77.6776 86.3396 80.4199 83.5184C83.4801 80.3681 87.7324 78.5665 92.1041 78.5665H98.4447C107.482 78.5665 114.808 85.9579 114.808 95.0762C114.807 98.0313 112.538 99.609 110.013 100.437Z" fill="#502425"/>
<path fill-rule="evenodd" clip-rule="evenodd" d="M103.287 85.6998C95.9831 87.9764 89.7887 86.3733 87.3204 85.6998C81.4641 84.1018 77.4203 81.1008 75.1924 79.116C74.8729 78.8327 74.5669 78.546 74.2693 78.2593C69.1763 73.3193 66.4961 66.4912 66.4961 59.4917V58.0039C66.4961 49.113 72.8552 40.9854 81.3901 38.1778C84.6201 37.1158 88.0266 36.6578 91.4264 36.3999C99.8419 35.7587 110.063 36.2574 116.283 42.5817C120.216 46.5785 121.198 51.1809 121.451 53.561C121.547 54.4635 121.657 55.3592 121.805 56.2549C122.252 58.9692 122.536 63.402 120.881 68.4387C120.417 69.8518 118.669 74.7545 113.936 79.2941C109.285 83.754 104.355 85.3673 103.287 85.6998Z" fill="#E4D499"/>
<path fill-rule="evenodd" clip-rule="evenodd" d="M80.8978 42.0804C81.757 41.3696 81.9756 40.0786 81.6746 38.9997C81.3736 37.919 80.6456 37.0148 79.8688 36.2141C77.5989 33.8714 74.7388 32.1189 71.6315 31.1689C70.5554 30.8398 69.4188 30.6023 68.3057 30.772C67.1926 30.9399 66.098 31.5761 65.6188 32.6041C65.259 33.376 65.2775 34.2649 65.3178 35.1165C65.4456 37.8359 65.7264 40.5485 66.1568 43.2356C66.4881 45.3121 66.9992 47.5327 68.5798 48.9034C69.8408 49.9976 71.6113 50.3522 73.2659 50.1757C74.9187 49.9976 76.4841 49.3411 77.9789 48.6065C80.0857 47.5717 82.2295 46.2366 83.2215 44.094C84.2136 41.9531 83.4552 38.8606 81.2089 38.1854" fill="#E4D499"/>
<path fill-rule="evenodd" clip-rule="evenodd" d="M109.564 41.8246C108.705 41.1138 108.486 39.8228 108.787 38.7438C109.088 37.6632 109.816 36.759 110.593 35.9583C112.861 33.6155 115.723 31.8631 118.83 30.9131C119.906 30.584 121.043 30.3482 122.156 30.5162C123.269 30.6841 124.364 31.3203 124.843 32.3483C125.201 33.1202 125.184 34.0091 125.144 34.8607C125.016 37.5801 124.735 40.2927 124.305 42.9798C123.974 45.0563 123.463 47.2769 121.882 48.6476C120.621 49.7418 118.851 50.0963 117.196 49.9182C115.543 49.7418 113.978 49.0853 112.483 48.3507C110.376 47.3142 108.232 45.9808 107.24 43.8382C106.248 41.6973 107.007 38.6047 109.253 37.9296" fill="#E4D499"/>
<path fill-rule="evenodd" clip-rule="evenodd" d="M84.8725 55.7034C84.8725 57.2574 83.6248 58.5161 82.0847 58.5161C80.5445 58.5161 79.2969 57.2574 79.2969 55.7034C79.2969 54.1495 80.5445 52.8907 82.0847 52.8907C83.6248 52.8907 84.8725 54.1495 84.8725 55.7034Z" fill="#522626"/>
<path fill-rule="evenodd" clip-rule="evenodd" d="M109.646 55.5993C109.646 57.1532 108.398 58.412 106.858 58.412C105.318 58.412 104.07 57.1532 104.07 55.5993C104.07 54.0454 105.318 52.7866 106.858 52.7866C108.398 52.7866 109.646 54.0454 109.646 55.5993Z" fill="#522626"/>
<path fill-rule="evenodd" clip-rule="evenodd" d="M95.2897 68.7646L99.1284 63.4633H91.2812C92.8803 65.4362 95.2881 68.7697 95.2897 68.7646Z" fill="#522626"/>
<path d="M95.5742 64.4355V72.4274" stroke="#522626" stroke-width="1.049"/>
<path d="M88.1797 69.6824C89.8897 71.4552 92.4774 72.5104 95.0819 72.4985C97.6881 72.4883 100.264 71.4094 101.956 69.623" stroke="#522626" stroke-width="1.049" stroke-linecap="round"/>
<path d="M107.595 65.8952L113.618 62.4413M113.618 73.9651L107.595 70.5112M107.48 68.2499H113.618" stroke="#522626" stroke-width="0.461" stroke-linecap="round"/>
<path d="M83.4129 65.8974L76.625 62.4469M76.625 73.9589L83.4129 70.5083M83.5407 68.2504H76.625" stroke="#522626" stroke-width="0.489" stroke-linecap="round"/>
</svg>
