<svg width="190" height="190" viewBox="0 0 190 190" fill="none" xmlns="http://www.w3.org/2000/svg">
<path fill-rule="evenodd" clip-rule="evenodd" d="M189.712 94.5023C189.712 146.642 147.444 188.91 95.3042 188.91C43.1627 188.91 0.894531 146.642 0.894531 94.5023C0.894531 42.3626 43.1627 0.0943604 95.3042 0.0943604C147.444 0.0943604 189.712 42.3626 189.712 94.5023Z" fill="white"/>
<path fill-rule="evenodd" clip-rule="evenodd" d="M58.1665 57.649C56.5023 59.6932 53.6235 60.3735 50.9957 60.1682C48.3696 59.9647 45.8657 59.0198 43.3143 58.3599C42.2099 58.0749 40.8952 57.8933 40.0571 58.6652C39.4617 59.2166 39.3056 60.1038 39.3684 60.913C39.6279 64.2159 42.7205 66.4688 45.5349 68.2144C47.4553 69.4036 49.4299 70.5962 51.6302 71.1034C53.8321 71.6107 56.3361 71.3291 58.0308 69.8328C59.812 68.2585 60.3481 65.7291 60.6721 63.3728C60.8384 62.1548 60.9707 60.8774 60.5347 59.7272C60.0987 58.5787 58.9129 57.6185 57.7068 57.8526" fill="#F78462"/>
<path fill-rule="evenodd" clip-rule="evenodd" d="M58.6296 68.2971C54.5242 69.1284 50.5546 70.5059 46.8869 72.3736C45.7147 72.9708 44.539 73.646 43.7773 74.6502C43.0173 75.6545 42.7663 77.0676 43.5059 78.0838C44.2099 79.0508 45.5773 79.4138 46.8479 79.5461C49.7216 79.8464 52.6955 79.3137 55.2265 78.0465C57.1757 77.0693 58.9078 75.6019 59.6898 73.7138C60.4719 71.824 60.1343 69.4914 58.5244 68.0986" fill="#F68462"/>
<path fill-rule="evenodd" clip-rule="evenodd" d="M105.524 64.7447C105.524 79.5681 93.5085 91.5839 78.6852 91.5839C63.8635 91.5839 51.8477 79.5681 51.8477 64.7447C51.8477 49.923 63.8635 37.9055 78.6852 37.9055C93.5085 37.9055 105.524 49.923 105.524 64.7447Z" fill="#FCE428"/>
<path fill-rule="evenodd" clip-rule="evenodd" d="M55.1208 105.022C53.2971 114.473 54.4524 124.743 59.6825 132.823C66.8584 143.907 78.8436 146.922 87.9314 149.226C100.919 152.515 117.37 151.387 129.848 146.498C144.501 140.757 152.012 128.319 151.188 112.851C151.052 110.315 150.435 98.7061 142.567 92.1935C140.251 90.2765 137.033 88.575 136.061 89.4283C135.085 90.285 137.101 93.0671 135.735 94.7958C134.678 96.1343 132.261 95.9969 131.18 95.9341C129.957 95.8645 129.336 95.5812 127.277 94.9586C125.665 94.4718 124.021 94.0986 122.398 93.6575C119 92.7346 111.318 91.8135 102.432 92.6837C96.7681 93.2402 93.1462 94.4921 91.6025 92.1884C90.9663 91.2401 91.0952 87.474 91.6143 86.4595C97.0226 75.8908 76.2294 74.4878 68.168 78.8069C60.7037 82.8054 56.561 97.5627 55.1208 105.022Z" fill="#FCE428"/>
<path fill-rule="evenodd" clip-rule="evenodd" d="M110.8 139.212C109.899 139.212 108.939 139.156 107.921 139.041C102.637 138.449 97.0304 137.57 91.8257 135.18C86.0358 132.521 81.754 128.318 79.7641 123.345C77.4112 117.462 78.6988 110.619 82.8974 106.702C88.7196 101.27 97.5088 102.664 102.23 103.981C104.103 104.502 105.967 105.139 107.77 105.753C111.94 107.178 115.879 108.524 120.012 108.607C123.293 108.673 126.596 107.888 129.561 106.332C129.89 106.159 130.484 105.687 131.059 105.231C132.83 103.823 135.035 102.076 137.212 102.386C138.181 102.527 139.017 103.061 139.629 103.932C140.155 104.681 140.457 105.606 140.528 106.681C140.768 110.285 138.966 114.122 135.712 116.945C132.986 119.31 129.727 120.724 126.623 121.97C126.229 122.127 125.412 122.457 125.373 122.753C125.352 122.898 125.463 123.099 125.644 123.252C125.785 123.374 125.949 123.471 126.141 123.551C127.227 123.995 127.98 124.955 128.156 126.119C128.253 126.754 128.167 127.381 127.921 127.941C127.685 128.479 127.339 128.854 126.998 129.154C124.73 131.156 120.524 131.717 119.215 131.719C118.407 131.721 118.003 131.722 117.751 131.627C117.466 131.522 117.094 131.315 116.867 131.476C116.848 131.488 116.758 131.556 116.745 131.658C116.712 131.902 117.143 132.079 117.508 132.36C118.334 133 118.567 133.996 118.621 134.284C118.636 134.367 118.697 134.715 118.658 135.173C118.561 136.333 117.891 137.363 116.867 137.926C115.309 138.783 113.277 139.212 110.8 139.212ZM94.1261 105.889C89.2573 105.889 86.4497 107.655 85.0264 108.983C81.7472 112.042 80.7752 117.471 82.6616 122.187C84.3513 126.414 88.0681 130.021 93.1269 132.345C97.9312 134.552 103.244 135.377 108.269 135.941C111.384 136.291 113.837 136.031 115.364 135.193C115.477 135.131 115.54 135.036 115.55 134.91C115.557 134.834 115.545 134.688 115.398 134.569C114.946 134.213 114.587 133.784 114.325 133.295C113.681 132.092 113.833 130.65 114.704 129.705C115.759 128.562 117.155 128.732 117.99 128.833L118.124 128.849C120.502 129.127 123.077 128.341 125.015 126.747C125.035 126.73 125.088 126.687 125.072 126.586C125.055 126.475 124.982 126.447 124.959 126.436C124.465 126.234 124.015 125.963 123.625 125.631C122.621 124.779 122.119 123.549 122.28 122.341C122.56 120.241 124.519 119.454 125.461 119.076C128.319 117.927 131.307 116.636 133.668 114.588C136.189 112.4 137.59 109.523 137.416 106.888C137.383 106.391 137.268 105.999 137.076 105.725C136.913 105.496 136.813 105.48 136.766 105.474C135.924 105.351 134.021 106.861 133 107.674C132.248 108.269 131.6 108.785 131.01 109.094C127.58 110.894 123.759 111.813 119.949 111.727C115.33 111.633 110.973 110.146 106.761 108.707C105 108.105 103.18 107.484 101.392 106.985C98.5758 106.2 96.1686 105.889 94.1261 105.889Z" fill="#FEF9D0"/>
<path fill-rule="evenodd" clip-rule="evenodd" d="M73.4788 61.0852C73.4788 63.2414 71.7315 64.9887 69.5754 64.9887C67.4192 64.9887 65.6719 63.2414 65.6719 61.0852C65.6719 58.9291 67.4192 57.1818 69.5754 57.1818C71.7315 57.1818 73.4788 58.9291 73.4788 61.0852Z" fill="#666666"/>
<path fill-rule="evenodd" clip-rule="evenodd" d="M91.7188 89.3217C91.3745 90.6161 91.5967 92.1514 92.6078 93.0318C92.869 93.2591 93.1829 93.4474 93.3423 93.7562C93.6986 94.4432 93.0692 95.2609 92.3669 95.59C91.3117 96.0854 90.0326 95.9955 88.9876 95.4781C87.9426 94.9606 87.1249 94.0497 86.5871 93.0165C85.6117 91.142 85.554 88.7958 86.5159 86.9145C87.4795 85.0331 89.466 83.6947 91.578 83.598C92.316 83.564 94.1227 83.6387 94.6655 84.1425C96.1075 85.481 92.1141 87.8373 91.7188 89.3217Z" fill="#FCE428"/>
</svg>
