<svg width="190" height="190" viewBox="0 0 190 190" fill="none" xmlns="http://www.w3.org/2000/svg">
<path fill-rule="evenodd" clip-rule="evenodd" d="M189.282 94.5023C189.282 146.642 147.014 188.91 94.8745 188.91C42.7331 188.91 0.464844 146.642 0.464844 94.5023C0.464844 42.3626 42.7331 0.0943604 94.8745 0.0943604C147.014 0.0943604 189.282 42.3626 189.282 94.5023Z" fill="white"/>
<path fill-rule="evenodd" clip-rule="evenodd" d="M94.8757 32.2966C83.4163 32.2966 74.125 43.3115 74.125 56.8982C74.125 70.4866 83.4163 81.5015 94.8757 81.5015C106.335 81.5015 115.626 70.4866 115.626 56.8982C115.626 43.3115 106.335 32.2966 94.8757 32.2966ZM94.8757 72.1695C87.1621 72.1695 80.9073 64.7544 80.9073 55.609C80.9073 46.4635 87.1621 39.0484 94.8757 39.0484C102.589 39.0484 108.844 46.4635 108.844 55.609C108.844 64.7544 102.589 72.1695 94.8757 72.1695Z" fill="#8A63C3"/>
<path fill-rule="evenodd" clip-rule="evenodd" d="M141.363 149.402H48.3867L53.8848 59.5417H135.866L141.363 149.402Z" fill="#8A63C3"/>
<path fill-rule="evenodd" clip-rule="evenodd" d="M96.2178 94.0661C96.345 93.8456 96.4485 93.6776 96.5401 93.5046C97.1254 92.4053 97.9023 91.4655 98.9015 90.7191C100.118 89.8115 101.494 89.2788 102.985 89.0328C103.487 88.9514 103.991 88.8649 104.498 88.8293C105.418 88.7648 106.325 88.8734 107.226 89.0786C108.159 89.2907 109.055 89.6011 109.896 90.0507C111.223 90.7632 112.368 91.6979 113.311 92.8803C114.122 93.8948 114.722 95.0246 115.102 96.2545C115.438 97.3385 115.654 98.4548 115.646 99.605C115.637 100.701 115.479 101.771 115.253 102.838C114.945 104.307 114.383 105.683 113.701 107.005C112.641 109.059 111.282 110.913 109.743 112.64C108.059 114.53 106.203 116.235 104.24 117.828C102.607 119.155 100.888 120.368 99.139 121.533C98.245 122.128 97.3205 122.68 96.4163 123.26C96.2602 123.36 96.1465 123.36 95.9939 123.258C94.5366 122.301 93.0641 121.367 91.6188 120.393C89.9529 119.27 88.3701 118.037 86.8467 116.729C85.1503 115.271 83.5522 113.709 82.1069 111.999C80.782 110.432 79.6098 108.756 78.6767 106.923C78.105 105.8 77.6012 104.64 77.2941 103.417C77.0142 102.296 76.7631 101.162 76.8208 99.9901C76.8446 99.5083 76.7988 99.0214 76.8548 98.5447C76.9243 97.9527 77.0346 97.3606 77.1805 96.7821C77.6826 94.7701 78.7225 93.0737 80.2442 91.664C81.2587 90.7242 82.4106 90.0066 83.6998 89.518C84.5701 89.1872 85.476 88.9836 86.4039 88.87C87.4506 88.741 88.4838 88.8174 89.505 89.0498C90.1751 89.2008 90.8571 89.345 91.4915 89.596C92.8623 90.1406 94.0684 90.9464 94.9658 92.1424C95.3373 92.636 95.6461 93.1772 95.982 93.6946C96.0498 93.7981 96.1143 93.9033 96.2178 94.0661Z" fill="#FFA1A1"/>
</svg>
