<svg width="190" height="190" viewBox="0 0 190 190" fill="none" xmlns="http://www.w3.org/2000/svg">
<g clip-path="url(#clip0_1_874)">
<path d="M95 190C147.467 190 190 147.467 190 95C190 42.5329 147.467 0 95 0C42.5329 0 0 42.5329 0 95C0 147.467 42.5329 190 95 190Z" fill="white"/>
<path d="M148.879 128.967C138.47 146.315 117.416 150.474 106.692 152.584C103.045 153.293 99.3978 153.49 95.5536 153.51V153.411C92.1037 153.372 88.8115 153.135 85.5194 152.485C74.7952 150.376 53.741 146.216 43.3322 128.868C33.2585 112.072 38.7783 92.2992 42.2282 79.9782C45.6584 67.7163 51.8091 55.8684 59.9508 46.0708C61.9616 43.646 64.2878 41.2212 67.3237 40.4129C73.7306 38.7176 71.1087 45.2822 71.1087 48.8504C71.1087 61.3488 81.5175 74.695 94.1934 76.3115C108.939 78.1843 121.102 62.4922 121.102 48.9292C121.102 45.3611 118.5 38.7767 124.887 40.4918C127.923 41.3001 130.25 43.7051 132.26 46.1496C140.402 55.9473 146.553 67.7952 149.983 80.0571C153.433 92.3584 158.953 112.151 148.879 128.947V128.967Z" fill="#EAE2E2"/>
<path d="M122.621 44.9865C125.42 45.7356 127.569 47.9436 129.422 50.1909C136.913 59.2 142.591 70.1214 145.745 81.4173C148.919 92.7329 154.005 110.968 144.72 126.424C135.139 142.411 115.741 146.236 105.884 148.168C102.513 148.818 99.1614 149.015 95.6327 149.035V148.956C92.4588 148.917 89.4426 148.72 86.387 148.109C76.5105 146.157 57.132 142.332 47.5511 126.364C38.266 110.889 43.3521 92.6935 46.526 81.3582C49.6802 70.0623 55.3577 59.1606 62.8489 50.1318C64.702 47.9041 66.8311 45.6765 69.6501 44.9274" stroke="#80898E" stroke-width="0.52" stroke-miterlimit="10" stroke-dasharray="5 5"/>
<path d="M69.2734 54.9025C69.2734 66.4152 80.5891 78.6968 94.3886 80.1951C110.416 81.9101 123.644 67.4798 123.644 54.9813" stroke="#80898E" stroke-width="0.56" stroke-miterlimit="10" stroke-dasharray="5 5"/>
<path d="M126.109 47.7859C127.035 47.7859 127.785 47.0357 127.785 46.1102C127.785 45.1848 127.035 44.4346 126.109 44.4346C125.184 44.4346 124.434 45.1848 124.434 46.1102C124.434 47.0357 125.184 47.7859 126.109 47.7859Z" fill="#80898E"/>
<path d="M94.9802 107.715L99.6918 92.8512L104.403 107.715H119.997L107.262 116.724L112.249 131.588L99.5932 122.244L87.1342 131.51L92.0232 116.547L79.3867 107.814L94.9802 107.715Z" fill="#8A63C3"/>
</g>
<defs>
<clipPath id="clip0_1_874">
<rect width="190" height="190" fill="white"/>
</clipPath>
</defs>
</svg>
