<svg width="190" height="190" viewBox="0 0 190 190" fill="none" xmlns="http://www.w3.org/2000/svg">
<g clip-path="url(#clip0_1_780)">
<path d="M95 190C147.467 190 190 147.467 190 95C190 42.5329 147.467 0 95 0C42.5329 0 0 42.5329 0 95C0 147.467 42.5329 190 95 190Z" fill="white"/>
<path d="M106.435 68.8597C107.184 68.8597 107.815 69.4117 107.933 70.1608C110.042 83.5858 116.922 102.885 116.745 120.687C116.646 130.327 117.356 141.15 116.489 149.469C115.779 156.211 119.032 164.944 112.329 164.845L108.327 163.702C103.596 163.643 101.605 158.162 101.506 153.392L101.211 135.334C101.171 132.988 99.2786 130.209 96.9721 130.13H95.4542C92.9111 130.051 91.2355 132.89 91.2552 135.452L91.4326 152.781C91.472 157.788 87.0562 165.575 82.1081 165.417L78.1062 164.077C74.2029 163.958 76.1742 158.537 75.5434 154.653C74.0452 145.368 75.8194 130.879 75.642 119.189C75.366 100.342 80.6295 84.0983 83.3106 71.1859C83.4683 70.4762 84.0794 69.9637 84.8088 69.9637C100.047 70.0622 91.196 68.7611 106.435 68.8597Z" fill="#EBE0D3"/>
<path d="M54.8026 108.918C50.8204 105.231 50.6036 98.9625 54.29 94.9803L74.3191 73.3939C78.0055 69.4117 84.2745 69.1949 88.2566 72.8813C89.814 74.3204 89.9125 76.7846 88.4537 78.342L60.2632 108.701C58.8241 110.258 56.3599 110.357 54.8026 108.898V108.918Z" fill="#EBE0D3"/>
<path d="M138.607 108.07C143.023 103.97 143.279 97.0108 139.179 92.595L120.648 72.6251C116.547 68.2092 109.588 67.9529 105.173 72.0534C103.438 73.6699 103.339 76.3904 104.956 78.1252L132.555 107.853C134.171 109.588 136.892 109.687 138.627 108.07H138.607Z" fill="#EBE0D3"/>
<path d="M95.0573 71.2056C106.87 71.2056 116.447 61.6293 116.447 49.8163C116.447 38.0033 106.87 28.427 95.0573 28.427C83.2443 28.427 73.668 38.0033 73.668 49.8163C73.668 61.6293 83.2443 71.2056 95.0573 71.2056Z" fill="#EBE0D3"/>
<path d="M86.2284 47.569C87.5022 47.569 88.5349 46.5364 88.5349 45.2625C88.5349 43.9887 87.5022 42.9561 86.2284 42.9561C84.9545 42.9561 83.9219 43.9887 83.9219 45.2625C83.9219 46.5364 84.9545 47.569 86.2284 47.569Z" fill="#9C7052"/>
<path d="M103.892 47.569C105.166 47.569 106.199 46.5364 106.199 45.2625C106.199 43.9887 105.166 42.9561 103.892 42.9561C102.619 42.9561 101.586 43.9887 101.586 45.2625C101.586 46.5364 102.619 47.569 103.892 47.569Z" fill="#9C7052"/>
<path d="M92.8125 53.0494C94.2516 54.7251 97.2481 54.6857 98.6083 52.9312" stroke="#A08072" stroke-width="0.41" stroke-miterlimit="10" stroke-linecap="round"/>
<path d="M90.2305 60.6786C91.157 61.9205 92.3793 62.9654 93.8578 63.4385C96.3614 64.2468 99.3776 63.0837 100.679 60.7969" stroke="#A08072" stroke-width="0.82" stroke-miterlimit="10" stroke-linecap="round"/>
<path d="M72.5264 27.5794C67.2037 33.2175 64.9958 41.3986 66.2772 48.9884C66.5334 50.526 67.1248 52.2805 68.6231 52.8128C70.3185 53.4239 72.0532 52.0834 73.3543 50.8415C78.8939 45.5779 84.4334 40.2947 89.9729 35.0311C91.0966 33.9666 92.2203 32.8823 93.068 31.6207C94.6451 29.2747 95.1576 26.298 94.5662 23.5578C93.8368 20.1867 91.3135 20.3445 88.179 20.4825C82.2846 20.7387 76.5282 23.3606 72.5264 27.6188V27.5794Z" fill="#713B21"/>
<path d="M116.923 27.5794C122.245 33.2175 124.453 41.3986 123.172 48.9884C122.916 50.526 122.324 52.2805 120.826 52.8128C119.131 53.4239 117.396 52.0834 116.095 50.8415C110.555 45.5779 105.016 40.2947 99.4762 35.0311C98.3525 33.9666 97.2288 32.8823 96.3811 31.6207C94.8041 29.2747 94.2915 26.298 94.8829 23.5578C95.6123 20.1867 98.1357 20.3445 101.27 20.4825C107.165 20.7387 112.921 23.3606 116.923 27.6188V27.5794Z" fill="#713B21"/>
<path d="M63.5171 64.9564C63.2411 68.4063 63.4185 72.0533 61.7034 75.0695C59.4955 78.9137 54.4291 81.2596 54.0742 85.6754C58.5886 85.2417 63.1425 84.1378 66.9669 81.6736C70.7914 79.2094 73.8076 75.2469 74.3596 70.7325C74.7735 67.322 73.7879 63.9116 72.5853 60.6785C71.6982 58.3129 69.7466 54.7053 66.9669 56.6175C64.4436 58.3326 63.7339 62.1571 63.5171 64.9564Z" fill="#713B21"/>
<path d="M70.1793 51.7089H67.9123C66.388 51.7089 65.1523 52.9445 65.1523 54.4688C65.1523 55.993 66.388 57.2287 67.9123 57.2287H70.1793C71.7036 57.2287 72.9392 55.993 72.9392 54.4688C72.9392 52.9445 71.7036 51.7089 70.1793 51.7089Z" fill="#AB1317"/>
<path d="M117.357 59.4958C116.844 61.4475 117.179 63.5174 117.613 65.4888C118.047 67.4601 118.599 69.4512 118.5 71.462C118.441 72.9405 118.027 74.3796 117.948 75.8581C117.633 80.964 121.674 85.9515 126.721 86.7203C125.065 83.507 125.4 79.6628 126.07 76.0947C126.74 72.5265 127.706 68.9584 127.233 65.3705C126.661 61.132 119.722 50.5261 117.376 59.4761L117.357 59.4958Z" fill="#713B21"/>
<path d="M121.457 51.7089H119.19C117.665 51.7089 116.43 52.9445 116.43 54.4688C116.43 55.993 117.665 57.2287 119.19 57.2287H121.457C122.981 57.2287 124.217 55.993 124.217 54.4688C124.217 52.9445 122.981 51.7089 121.457 51.7089Z" fill="#AB1317"/>
<path d="M122.383 97.346L133.975 83.2704L120.037 71.9942C116.725 68.4261 111.324 67.9529 107.125 69.944C107.006 69.1949 106.375 68.6626 105.626 68.6429C90.4074 68.5443 99.2391 69.8454 84.0005 69.7469C83.5471 69.7469 82.8374 68.7021 82.5614 69.0372C79.3284 68.84 75.9771 70.5551 73.5326 73.1968L59.457 84.2561L69.7278 99.5342L73.9071 94.1523C70.1418 103.575 63.38 118.873 63.2618 128.947C75.6814 133.639 96.8538 134.329 109.648 131.608C115.385 130.386 120.274 128.592 125.36 125.674C126.089 125.26 126.799 124.827 127.528 124.393C126.759 114.201 119.288 99.4947 114.852 89.5394L122.403 97.4051L122.383 97.346Z" fill="#E3A93E"/>
<path d="M105.725 74.2415C105.626 74.3204 105.527 74.3795 105.429 74.4387C103.812 75.4046 101.9 75.6806 100.027 75.8975C95.8086 76.3509 91.4716 76.4692 87.4303 75.2469C86.425 74.9512 85.4196 74.5372 84.6704 73.8078C82.7385 71.935 83.9805 68.5837 85.0647 66.5729C94.9215 64.3059 102.768 64.3256 105.547 66.5729C106.651 67.4797 107.933 68.6626 108.051 70.1805C108.189 71.797 107.065 73.3544 105.764 74.2612L105.725 74.2415Z" fill="#EBE0D3"/>
<path d="M73.4925 162.854C73.2362 165.319 73.1968 167.901 74.0642 170.227C74.9119 172.553 76.8241 174.643 79.2686 175.116C81.7131 175.589 84.2759 174.387 85.9712 172.553C87.6666 170.72 88.672 168.354 89.5197 166.009C90.5645 163.111 91.4122 160.154 92.0824 157.157C92.5753 154.929 92.8513 152.308 91.2742 150.652C91.0771 151.066 90.7616 151.716 90.3674 152.505C88.948 155.481 88.0609 159.128 85.2615 161.159C79.4854 165.319 75.4639 158.103 75.3259 153.136C74.3205 156.132 73.8276 159.68 73.4925 162.854Z" fill="#AB1317"/>
<path d="M118.635 162.578C119.069 165.023 119.305 167.586 118.694 169.971C118.083 172.356 116.467 174.564 114.219 175.235C111.972 175.905 109.488 174.88 107.753 173.184C106.018 171.489 104.895 169.202 103.909 166.915C102.707 164.116 101.681 161.218 100.814 158.281C100.301 156.526 99.5326 153.628 100.913 152.13C102.095 154.121 103.061 156.191 104.422 158.123C105.861 160.173 107.773 162.322 110.277 162.342C111.952 162.342 113.529 161.317 114.495 159.937C115.501 158.498 116.881 154.851 116.151 153.037C117.334 155.935 118.083 159.464 118.635 162.598V162.578Z" fill="#AB1317"/>
<path d="M75.5625 156.842C75.7793 155.817 76.7256 155.146 77.6521 154.673C79.8009 153.589 82.3046 153.017 84.6111 153.648C86.9175 154.279 88.9283 156.349 88.9875 158.754" stroke="#AB1317" stroke-width="0.82" stroke-miterlimit="10"/>
<path d="M103.141 157.413C103.357 156.388 104.304 155.718 105.23 155.245C107.379 154.161 109.883 153.589 112.189 154.22C114.496 154.851 116.506 156.921 116.566 159.326" stroke="#AB1317" stroke-width="0.82" stroke-miterlimit="10"/>
<path d="M96.4408 94.2115C99.4349 94.2115 101.862 91.7843 101.862 88.7903C101.862 85.7962 99.4349 83.369 96.4408 83.369C93.4467 83.369 91.0195 85.7962 91.0195 88.7903C91.0195 91.7843 93.4467 94.2115 96.4408 94.2115Z" fill="#B86A6C"/>
<path d="M87.8431 100.894C90.8372 100.894 93.2644 98.4672 93.2644 95.4731C93.2644 92.4791 90.8372 90.0519 87.8431 90.0519C84.8491 90.0519 82.4219 92.4791 82.4219 95.4731C82.4219 98.4672 84.8491 100.894 87.8431 100.894Z" fill="#B86A6C"/>
<path d="M91.2728 111.244C94.2669 111.244 96.6941 108.817 96.6941 105.823C96.6941 102.829 94.2669 100.401 91.2728 100.401C88.2787 100.401 85.8516 102.829 85.8516 105.823C85.8516 108.817 88.2787 111.244 91.2728 111.244Z" fill="#B86A6C"/>
<path d="M102.175 111.441C105.169 111.441 107.596 109.014 107.596 106.02C107.596 103.026 105.169 100.599 102.175 100.599C99.1811 100.599 96.7539 103.026 96.7539 106.02C96.7539 109.014 99.1811 111.441 102.175 111.441Z" fill="#B86A6C"/>
<path d="M105.113 101.032C108.107 101.032 110.534 98.6051 110.534 95.6111C110.534 92.617 108.107 90.1898 105.113 90.1898C102.119 90.1898 99.6914 92.617 99.6914 95.6111C99.6914 98.6051 102.119 101.032 105.113 101.032Z" fill="#B86A6C"/>
<path d="M96.4408 103.437C99.4349 103.437 101.862 101.01 101.862 98.0162C101.862 95.0221 99.4349 92.595 96.4408 92.595C93.4467 92.595 91.0195 95.0221 91.0195 98.0162C91.0195 101.01 93.4467 103.437 96.4408 103.437Z" fill="#DFA549"/>
</g>
<defs>
<clipPath id="clip0_1_780">
<rect width="190" height="190" fill="white"/>
</clipPath>
</defs>
</svg>
