<svg width="190" height="190" viewBox="0 0 190 190" fill="none" xmlns="http://www.w3.org/2000/svg">
<g clip-path="url(#clip0_1_885)">
<path d="M95 190C147.467 190 190 147.467 190 95C190 42.5329 147.467 0 95 0C42.5329 0 0 42.5329 0 95C0 147.467 42.5329 190 95 190Z" fill="white"/>
<path d="M64.2656 137.424V94.4874C64.2656 77.0212 78.42 62.8865 95.8666 62.8865C113.333 62.8865 126.758 77.0409 126.758 94.4874V141.366" stroke="#E9D7B8" stroke-width="1.47" stroke-miterlimit="10"/>
<path d="M52.5547 133.796V90.8207C52.5547 68.564 71.9135 50.5458 95.7867 50.5458C119.66 50.5458 139.019 68.5838 139.019 90.8207V136.221" stroke="#E9D7B8" stroke-width="1.47" stroke-miterlimit="10"/>
<path d="M39.0508 141.642L39.3071 90.387C39.3071 61.3292 64.5997 37.7714 95.7866 37.7714C126.974 37.7714 152.266 61.3292 152.266 90.387L152.601 140.736" stroke="#E9D7B8" stroke-width="1.47" stroke-miterlimit="10"/>
<path d="M159.049 136.556H30.9297V142.746H159.049V136.556Z" fill="#E9D7B8"/>
<path d="M39.3861 136.556C42.3802 136.556 44.8073 134.129 44.8073 131.135C44.8073 128.141 42.3802 125.714 39.3861 125.714C36.392 125.714 33.9648 128.141 33.9648 131.135C33.9648 134.129 36.392 136.556 39.3861 136.556Z" fill="#4EB763"/>
<path d="M39.1517 126.404C42.1458 126.404 44.573 123.977 44.573 120.983C44.573 117.988 42.1458 115.561 39.1517 115.561C36.1576 115.561 33.7305 117.988 33.7305 120.983C33.7305 123.977 36.1576 126.404 39.1517 126.404Z" fill="#4EB763"/>
<path d="M39.1517 116.232C42.1458 116.232 44.573 113.804 44.573 110.81C44.573 107.816 42.1458 105.389 39.1517 105.389C36.1576 105.389 33.7305 107.816 33.7305 110.81C33.7305 113.804 36.1576 116.232 39.1517 116.232Z" fill="#4EB763"/>
<path d="M51.8861 136.556C54.8802 136.556 57.3073 134.129 57.3073 131.135C57.3073 128.141 54.8802 125.714 51.8861 125.714C48.892 125.714 46.4648 128.141 46.4648 131.135C46.4648 134.129 48.892 136.556 51.8861 136.556Z" fill="#FCBB44"/>
<path d="M52.183 126.246C55.177 126.246 57.6042 123.819 57.6042 120.825C57.6042 117.831 55.177 115.404 52.183 115.404C49.1889 115.404 46.7617 117.831 46.7617 120.825C46.7617 123.819 49.1889 126.246 52.183 126.246Z" fill="#FCBB44"/>
<path d="M52.3392 115.778C55.3333 115.778 57.7605 113.351 57.7605 110.357C57.7605 107.363 55.3333 104.936 52.3392 104.936C49.3451 104.936 46.918 107.363 46.918 110.357C46.918 113.351 49.3451 115.778 52.3392 115.778Z" fill="#FCBB44"/>
<path d="M52.3392 105.606C55.3333 105.606 57.7605 103.179 57.7605 100.185C57.7605 97.1906 55.3333 94.7634 52.3392 94.7634C49.3451 94.7634 46.918 97.1906 46.918 100.185C46.918 103.179 49.3451 105.606 52.3392 105.606Z" fill="#FCBB44"/>
<path d="M52.3392 95.2957C55.3333 95.2957 57.7605 92.8686 57.7605 89.8745C57.7605 86.8804 55.3333 84.4532 52.3392 84.4532C49.3451 84.4532 46.918 86.8804 46.918 89.8745C46.918 92.8686 49.3451 95.2957 52.3392 95.2957Z" fill="#FCBB44"/>
<path d="M53.5423 84.9264C56.5364 84.9264 58.9636 82.4992 58.9636 79.5051C58.9636 76.511 56.5364 74.0839 53.5423 74.0839C50.5483 74.0839 48.1211 76.511 48.1211 79.5051C48.1211 82.4992 50.5483 84.9264 53.5423 84.9264Z" fill="#FCBB44"/>
<path d="M58.1166 75.2469C61.1106 75.2469 63.5378 72.8197 63.5378 69.8257C63.5378 66.8316 61.1106 64.4044 58.1166 64.4044C55.1225 64.4044 52.6953 66.8316 52.6953 69.8257C52.6953 72.8197 55.1225 75.2469 58.1166 75.2469Z" fill="#FCBB44"/>
<path d="M138.687 136.339C141.681 136.339 144.108 133.912 144.108 130.918C144.108 127.924 141.681 125.497 138.687 125.497C135.693 125.497 133.266 127.924 133.266 130.918C133.266 133.912 135.693 136.339 138.687 136.339Z" fill="#FCBB44"/>
<path d="M139.038 125.753C142.033 125.753 144.46 123.326 144.46 120.332C144.46 117.338 142.033 114.911 139.038 114.911C136.044 114.911 133.617 117.338 133.617 120.332C133.617 123.326 136.044 125.753 139.038 125.753Z" fill="#FCBB44"/>
<path d="M139.277 115.561C142.271 115.561 144.698 113.134 144.698 110.14C144.698 107.146 142.271 104.719 139.277 104.719C136.283 104.719 133.855 107.146 133.855 110.14C133.855 113.134 136.283 115.561 139.277 115.561Z" fill="#FCBB44"/>
<path d="M64.3275 136.556C67.3216 136.556 69.7488 134.129 69.7488 131.135C69.7488 128.141 67.3216 125.714 64.3275 125.714C61.3334 125.714 58.9062 128.141 58.9062 131.135C58.9062 134.129 61.3334 136.556 64.3275 136.556Z" fill="#EE5021"/>
<path d="M126.206 136.537C129.2 136.537 131.628 134.109 131.628 131.115C131.628 128.121 129.2 125.694 126.206 125.694C123.212 125.694 120.785 128.121 120.785 131.115C120.785 134.109 123.212 136.537 126.206 136.537Z" fill="#EE5021"/>
<path d="M126.562 125.852C129.556 125.852 131.983 123.425 131.983 120.431C131.983 117.436 129.556 115.009 126.562 115.009C123.568 115.009 121.141 117.436 121.141 120.431C121.141 123.425 123.568 125.852 126.562 125.852Z" fill="#EE5021"/>
<path d="M126.82 115.423C129.814 115.423 132.241 112.996 132.241 110.002C132.241 107.008 129.814 104.581 126.82 104.581C123.826 104.581 121.398 107.008 121.398 110.002C121.398 112.996 123.826 115.423 126.82 115.423Z" fill="#EE5021"/>
<path d="M126.878 104.778C129.872 104.778 132.3 102.351 132.3 99.3567C132.3 96.3626 129.872 93.9354 126.878 93.9354C123.884 93.9354 121.457 96.3626 121.457 99.3567C121.457 102.351 123.884 104.778 126.878 104.778Z" fill="#EE5021"/>
<path d="M64.6205 126.246C67.6145 126.246 70.0417 123.819 70.0417 120.825C70.0417 117.831 67.6145 115.404 64.6205 115.404C61.6264 115.404 59.1992 117.831 59.1992 120.825C59.1992 123.819 61.6264 126.246 64.6205 126.246Z" fill="#EE5021"/>
<path d="M64.7806 115.778C67.7747 115.778 70.2019 113.351 70.2019 110.357C70.2019 107.363 67.7747 104.936 64.7806 104.936C61.7866 104.936 59.3594 107.363 59.3594 110.357C59.3594 113.351 61.7866 115.778 64.7806 115.778Z" fill="#EE5021"/>
<path d="M64.6205 105.448C67.6145 105.448 70.0417 103.021 70.0417 100.027C70.0417 97.0329 67.6145 94.6057 64.6205 94.6057C61.6264 94.6057 59.1992 97.0329 59.1992 100.027C59.1992 103.021 61.6264 105.448 64.6205 105.448Z" fill="#EE5021"/>
<path d="M64.8392 95.0394C67.8333 95.0394 70.2605 92.6122 70.2605 89.6181C70.2605 86.6241 67.8333 84.1969 64.8392 84.1969C61.8451 84.1969 59.418 86.6241 59.418 89.6181C59.418 92.6122 61.8451 95.0394 64.8392 95.0394Z" fill="#EE5021"/>
<path d="M67.6556 85.1826C70.6497 85.1826 73.0769 82.7554 73.0769 79.7613C73.0769 76.7673 70.6497 74.3401 67.6556 74.3401C64.6616 74.3401 62.2344 76.7673 62.2344 79.7613C62.2344 82.7554 64.6616 85.1826 67.6556 85.1826Z" fill="#EE5021"/>
<path d="M39.1517 105.606C42.1458 105.606 44.573 103.179 44.573 100.185C44.573 97.1906 42.1458 94.7634 39.1517 94.7634C36.1576 94.7634 33.7305 97.1906 33.7305 100.185C33.7305 103.179 36.1576 105.606 39.1517 105.606Z" fill="#4EB763"/>
<path d="M39.1517 95.4337C42.1458 95.4337 44.573 93.0065 44.573 90.0124C44.573 87.0184 42.1458 84.5912 39.1517 84.5912C36.1576 84.5912 33.7305 87.0184 33.7305 90.0124C33.7305 93.0065 36.1576 95.4337 39.1517 95.4337Z" fill="#4EB763"/>
<path d="M39.8431 85.2418C42.8372 85.2418 45.2644 82.8146 45.2644 79.8205C45.2644 76.8265 42.8372 74.3993 39.8431 74.3993C36.8491 74.3993 34.4219 76.8265 34.4219 79.8205C34.4219 82.8146 36.8491 85.2418 39.8431 85.2418Z" fill="#4EB763"/>
<path d="M42.9955 75.5229C45.9895 75.5229 48.4167 73.0957 48.4167 70.1017C48.4167 67.1076 45.9895 64.6804 42.9955 64.6804C40.0014 64.6804 37.5742 67.1076 37.5742 70.1017C37.5742 73.0957 40.0014 75.5229 42.9955 75.5229Z" fill="#4EB763"/>
<path d="M47.7455 66.4743C50.7395 66.4743 53.1667 64.0472 53.1667 61.0531C53.1667 58.059 50.7395 55.6318 47.7455 55.6318C44.7514 55.6318 42.3242 58.059 42.3242 61.0531C42.3242 64.0472 44.7514 66.4743 47.7455 66.4743Z" fill="#4EB763"/>
<path d="M152.109 136.714C155.103 136.714 157.53 134.287 157.53 131.293C157.53 128.299 155.103 125.872 152.109 125.872C149.115 125.872 146.688 128.299 146.688 131.293C146.688 134.287 149.115 136.714 152.109 136.714Z" fill="#4EB763"/>
<path d="M152.386 126.581C155.38 126.581 157.807 124.154 157.807 121.16C157.807 118.166 155.38 115.739 152.386 115.739C149.392 115.739 146.965 118.166 146.965 121.16C146.965 124.154 149.392 126.581 152.386 126.581Z" fill="#4EB763"/>
</g>
<defs>
<clipPath id="clip0_1_885">
<rect width="190" height="190" fill="white"/>
</clipPath>
</defs>
</svg>
