<svg width="190" height="190" viewBox="0 0 190 190" fill="none" xmlns="http://www.w3.org/2000/svg">
<g clip-path="url(#clip0_1_984)">
<path d="M95.6115 189.566C147.741 189.566 190 147.13 190 94.7832C190 42.4359 147.741 0 95.6115 0C43.482 0 1.22266 42.4359 1.22266 94.7832C1.22266 147.13 43.482 189.566 95.6115 189.566Z" fill="white"/>
<path d="M95.6099 179.236C142.045 179.236 179.689 141.425 179.689 94.7832C179.689 48.141 142.045 10.33 95.6099 10.33C49.1745 10.33 11.5312 48.141 11.5312 94.7832C11.5312 141.425 49.1745 179.236 95.6099 179.236Z" fill="white" stroke="#E9D7B8" stroke-width="1.38" stroke-miterlimit="10"/>
<mask id="mask0_1_984" style="mask-type:luminance" maskUnits="userSpaceOnUse" x="0" y="0" width="189" height="190">
<path d="M94.3889 189.98C146.518 189.98 188.778 147.544 188.778 95.1971C188.778 42.8498 146.518 0.41394 94.3889 0.41394C42.2593 0.41394 0 42.8498 0 95.1971C0 147.544 42.2593 189.98 94.3889 189.98Z" fill="white"/>
</mask>
<g mask="url(#mask0_1_984)">
<path d="M71.0676 190.197C69.6876 194.712 65.6266 197.846 61.0925 197.984C56.0852 198.142 51.5117 194.633 50.25 189.547C52.2016 158.103 54.1533 126.66 56.1247 95.2168L67.874 95.5716L71.0676 190.177V190.197Z" fill="#525252"/>
<path d="M77.4342 81.9298C75.3052 86.1682 72.1116 89.7167 72.1116 89.7167C70.3571 91.6683 68.6814 93.068 67.8928 95.7293C67.4789 97.1093 67.2029 99.1989 67.1832 99.3172V99.3566C66.9072 101.387 65.0541 102.846 63.0236 102.609C62.7082 102.57 62.373 102.531 62.0576 102.491C61.8408 102.471 61.6436 102.452 61.4268 102.491C61.0916 102.491 60.7762 102.531 60.4411 102.55C58.3909 102.669 56.6364 101.111 56.4984 99.0609V99.0215C56.4984 98.9229 56.3209 96.8136 56.0055 95.4139C55.3747 92.6934 53.7976 91.1952 52.1614 89.145C52.1614 89.145 49.1846 85.4191 47.3315 81.0427C45.7347 77.3168 45.9121 74.1429 46.2078 69.0173C46.7598 59.0028 50.0126 52.1622 50.9588 50.2697C53.9553 44.257 56.6561 42.3448 57.7995 41.6351C59.5146 40.5509 61.5253 39.782 63.5756 39.7426C65.8229 39.7032 67.6169 40.6889 69.3714 41.99C70.5936 42.8968 73.0972 44.9864 75.6797 51.0385C76.5077 52.9902 79.3268 60.0082 79.2873 70.0425C79.2676 75.1877 79.2479 78.3616 77.4342 81.9889V81.9298Z" fill="#CFBEB3"/>
<path d="M71.0676 190.197C69.6876 194.712 65.6266 197.846 61.0925 197.984C56.0852 198.142 51.5117 194.633 50.25 189.547C52.2016 158.103 54.0547 129.026 56.0064 97.5825C56.9921 98.1147 59.2986 99.2187 62.4133 99.061C65.0155 98.923 66.9474 97.9767 67.8937 97.405C68.9582 128.336 70.0031 159.247 71.0676 190.177V190.197Z" fill="#2185BE"/>
<path d="M50.5451 66.0011C49.8157 74.064 52.0631 82.7971 56.7943 86.9961C57.228 87.3904 57.8195 87.7256 58.2532 87.3116C58.746 86.8187 58.6474 85.7542 58.4503 84.9459C57.7209 81.91 56.4395 79.2487 55.4932 76.3311C53.2065 69.1553 53.3247 60.0476 56.6761 53.621C57.3266 52.3593 59.988 48.8108 58.9826 47.2337C57.7603 45.3018 55.8481 49.56 55.2567 50.6639C52.8122 55.1192 51.0182 60.4025 50.5254 66.0208L50.5451 66.0011Z" fill="#CFBEB3"/>
<path d="M68.0918 102.669C66.8893 103.043 65.6276 103.26 64.3856 103.398C61.4286 103.733 58.7081 103.26 55.8299 102.708C54.4302 102.452 54.3711 101.545 54.3711 100.066C54.3711 98.3907 54.5091 97.129 56.1847 97.129C57.2296 97.4839 60.0683 97.7993 62.0594 97.7796C63.8731 97.7599 66.8498 97.4839 67.8355 97.129C69.4915 97.129 69.3732 98.4104 69.3732 100.066C69.3732 101.19 69.5506 102.176 68.3678 102.57C68.2889 102.609 68.1904 102.629 68.0918 102.649V102.669Z" fill="#B4925C"/>
<path d="M138.193 189.566C136.852 194.199 132.752 197.471 128.119 197.669C123.013 197.905 118.282 194.396 116.941 189.231C118.459 157.118 119.997 124.984 121.515 92.8708L133.521 93.0483L138.212 189.566H138.193Z" fill="#CFBEB3"/>
<path d="M121.376 96.7741C121.612 94.6845 120.449 92.7328 119.424 90.8995C118.399 89.0661 117.473 87.1736 116.645 85.2416C119.05 84.7488 121.534 84.7685 123.939 85.3008C124.333 85.3796 124.747 85.4979 125.003 85.8133C125.24 86.109 125.279 86.5427 125.417 86.9173C125.654 87.6073 126.304 88.1395 127.014 88.2578C127.25 88.2973 127.507 88.2973 127.724 88.3958C128.276 88.6521 128.374 89.3618 128.414 89.9532C128.591 93.2454 128.729 96.6953 127.329 99.672C127.132 100.106 126.896 100.52 126.521 100.815C125.575 101.584 124.096 101.249 123.209 100.401C122.322 99.5537 121.908 98.3512 121.534 97.2078C121.494 97.1093 121.474 97.0107 121.534 96.9121C121.593 96.8135 121.356 96.6756 121.376 96.7741Z" fill="#CFBEB3"/>
<path d="M133.518 94.6845C133.281 92.5948 134.445 90.6432 135.47 88.8098C136.495 86.9765 137.402 84.9065 138.23 82.9746C135.824 82.4817 133.36 82.6789 130.955 83.2112C130.561 83.29 130.147 83.4083 129.891 83.7237C129.654 84.0194 129.615 84.4531 129.477 84.8277C129.24 85.5176 128.59 86.0499 127.88 86.1682C127.643 86.2076 127.387 86.2076 127.17 86.3062C126.618 86.5625 126.52 87.2722 126.48 87.8636C126.303 91.1557 126.165 94.6056 127.564 97.5824C127.762 98.0161 127.998 98.4301 128.373 98.7258C129.319 99.4946 130.798 99.1595 131.685 98.3118C132.572 97.4641 132.986 96.2616 133.36 95.1182C133.4 95.0196 133.419 94.921 133.36 94.8225C133.301 94.7239 133.538 94.5859 133.518 94.6845Z" fill="#CFBEB3"/>
<path d="M139.435 43.0742V70.5945C139.435 71.5999 138.706 72.5067 137.72 72.6053C136.577 72.7236 135.611 71.8167 135.611 70.6931V43.3305C135.611 41.7731 134.349 40.5115 132.811 40.5115C131.254 40.5115 130.012 41.7731 130.012 43.3305V70.5945C130.012 71.5999 129.282 72.5067 128.297 72.6053C127.153 72.7236 126.187 71.8167 126.187 70.6931V43.6065C126.187 41.8914 124.807 40.5115 123.112 40.5115C121.417 40.5115 120.037 41.8914 120.037 43.6065V70.5945C120.037 71.5999 119.307 72.5067 118.322 72.6053C117.178 72.7236 116.212 71.8167 116.212 70.6931V43.3502C116.212 41.7929 114.951 40.5115 113.393 40.5115C111.836 40.5115 110.574 41.7731 110.574 43.3502V81.3778C110.574 88.317 116.173 93.9354 123.073 93.9354H132.102C139.001 93.9354 144.6 88.317 144.6 81.3778V43.0742C144.6 41.6549 143.457 40.5115 142.037 40.5115C140.618 40.5115 139.474 41.6549 139.474 43.0742H139.435Z" fill="#CFBEB3"/>
<path d="M138.468 189.882C137.009 194.416 132.613 197.57 127.665 197.728C122.224 197.905 117.177 194.436 115.758 189.349C117.571 157.906 119.287 128.809 121.1 97.3656C122.165 97.8979 124.708 98.9821 128.099 98.8047C130.937 98.647 133.027 97.681 134.072 97.129C135.531 128.04 137.009 158.971 138.468 189.882Z" fill="#2185BE"/>
<path d="M133.756 102.669C132.553 103.043 131.292 103.26 130.05 103.398C127.093 103.733 124.372 103.26 121.494 102.708C120.094 102.452 120.035 101.545 120.035 100.066C120.035 98.3907 120.173 97.129 121.849 97.129C122.894 97.4839 125.732 97.7993 127.723 97.7796C129.537 97.7599 132.514 97.4839 133.5 97.129C135.156 97.129 135.037 98.4104 135.037 100.066C135.037 101.19 135.215 102.176 134.032 102.57C133.953 102.609 133.854 102.629 133.756 102.649V102.669Z" fill="#B4925C"/>
</g>
</g>
<defs>
<clipPath id="clip0_1_984">
<rect width="190" height="190" fill="white"/>
</clipPath>
</defs>
</svg>
