<svg width="190" height="190" viewBox="0 0 190 190" fill="none" xmlns="http://www.w3.org/2000/svg">
<g clip-path="url(#clip0_1_1078)">
<path d="M95 190C147.467 190 190 147.467 190 95C190 42.5329 147.467 0 95 0C42.5329 0 0 42.5329 0 95C0 147.467 42.5329 190 95 190Z" fill="white"/>
<path d="M141.74 43.1532H48.2582C45.4383 43.1532 43.1523 45.4392 43.1523 48.259V141.741C43.1523 144.561 45.4383 146.847 48.2582 146.847H141.74C144.56 146.847 146.846 144.561 146.846 141.741V48.259C146.846 45.4392 144.56 43.1532 141.74 43.1532Z" fill="#FEF6E5"/>
<path d="M67.9132 111.875L71.2054 101.446C71.3434 100.973 72.0137 100.973 72.1517 101.446L75.4833 111.875H86.4243C86.9172 111.855 87.1143 112.466 86.72 112.762L77.7898 119.09L81.2988 129.519C81.4565 129.972 80.9242 130.366 80.53 130.071L71.6391 123.526L62.906 130.031C62.5117 130.327 61.9794 129.933 62.1371 129.479L65.5673 118.952L56.7159 112.861C56.3216 112.585 56.499 111.954 56.9919 111.954L67.9132 111.875Z" fill="#FCBB44"/>
<path d="M125.716 103.004H115.504V130.583H125.716V103.004Z" fill="#4EB763"/>
<path d="M106.828 111.697V121.909H134.407V111.697H106.828Z" fill="#4EB763"/>
<path d="M71.2846 85.3206C77.3163 85.3206 82.206 80.431 82.206 74.3993C82.206 68.3676 77.3163 63.4779 71.2846 63.4779C65.2529 63.4779 60.3633 68.3676 60.3633 74.3993C60.3633 80.431 65.2529 85.3206 71.2846 85.3206Z" fill="#EE5021"/>
<path d="M120.451 63.4779L109.254 83.4478H130.88C130.88 83.4478 120.846 63.8722 120.451 63.4779Z" fill="#13ABD1"/>
</g>
<defs>
<clipPath id="clip0_1_1078">
<rect width="190" height="190" fill="white"/>
</clipPath>
</defs>
</svg>
