<svg width="190" height="190" viewBox="0 0 190 190" fill="none" xmlns="http://www.w3.org/2000/svg">
<g clip-path="url(#clip0_1_1124)">
<path d="M95 190C147.467 190 190 147.467 190 95C190 42.5329 147.467 0 95 0C42.5329 0 0 42.5329 0 95C0 147.467 42.5329 190 95 190Z" fill="white"/>
<path d="M134.841 56.7556H57.8201C53.8679 56.7556 50.6641 59.9595 50.6641 63.9117V137.069C50.6641 141.021 53.8679 144.225 57.8201 144.225H134.841C138.793 144.225 141.997 141.021 141.997 137.069V63.9117C141.997 59.9595 138.793 56.7556 134.841 56.7556Z" fill="#FCBB44"/>
<path d="M50.5469 93.8565V106.749H142.077V93.8565H50.5469Z" fill="#13ABD1"/>
<path d="M89.8729 144.343H102.766L102.766 56.243H89.8729L89.8729 144.343Z" fill="#13ABD1"/>
<path d="M91.5321 44.9273C91.3941 44.6316 91.2955 44.4345 91.2364 44.3556C89.541 41.4971 87.3134 38.8752 84.4549 37.1996C83.0552 36.3716 81.4387 35.7605 79.8222 35.8788C75.564 36.1745 73.021 40.9057 73.3758 44.7893C73.7504 48.8503 77.22 51.1963 79.5659 52.7931C82.9566 55.0798 86.308 55.5924 88.0625 55.829C91.3744 56.2824 94.1343 55.9078 95.9085 55.5333C96.2436 55.4544 92.6755 47.3127 91.5321 44.947V44.9273ZM94.8045 45.3413C95.8494 48.7912 99.3781 55.3164 95.2974 57.8792C85.7954 62.9259 72.1141 62.3739 64.5638 54.1139C58.1766 46.5636 62.001 35.0311 70.4779 30.9504C74.4206 28.8804 79.349 28.0722 83.5086 30.0041C89.6987 32.7443 92.9317 39.3286 94.8242 45.3413H94.8045Z" fill="#13ABD1"/>
<path d="M107.322 56.1444C107.598 56.1444 107.775 56.1444 107.874 56.1444C110.713 55.967 113.591 55.2967 116.035 53.7985C117.238 53.0493 118.362 52.0834 118.973 50.802C120.57 47.4704 118.145 43.7445 115.129 42.5025C111.974 41.2212 108.761 42.9165 106.593 44.0796C103.458 45.7553 101.664 48.0815 100.757 49.3235C99.0225 51.6497 98.1157 53.8773 97.6623 55.3558C97.5637 55.6318 105.114 56.0852 107.322 56.1444ZM105.627 58.4509C102.65 57.8989 96.3218 58.0369 96.1641 53.9759C96.4795 44.8682 102.689 34.7551 111.994 32.2514C120.274 30.3392 127.174 37.6924 126.582 45.6567C126.424 49.422 124.946 53.4633 121.752 55.8487C117.1 59.4563 110.87 59.3577 105.627 58.4509Z" fill="#13ABD1"/>
<path d="M74.5378 66.6715C73.1579 70.2594 73.355 74.5766 70.0037 77.1788C69.2349 77.7703 68.2492 78.3025 67.9141 79.1108C71.9554 81.851 78.7171 81.299 82.029 77.9871C84.7101 75.306 84.9861 71.5999 85.5775 68.1697C86.1689 64.7395 87.5094 60.9742 91.2353 59.3183C91.9647 58.9832 92.8321 58.7269 93.2264 58.1158C94.902 55.5333 84.3947 57.9778 83.271 58.4509C79.2297 60.166 75.9375 63.123 74.5576 66.6912L74.5378 66.6715Z" fill="#13ABD1"/>
<path d="M115.542 65.2915C117.572 69.116 118.479 74.0444 121.85 76.3903C122.619 76.9226 123.545 77.3365 124.038 78.2039C121.456 82.0284 115.837 82.6198 112.328 79.4459C109.49 76.8831 108.327 72.7236 107.006 68.9385C105.685 65.1535 103.635 61.1122 100.205 59.9097C99.5342 59.6731 98.7654 59.5154 98.2923 58.9043C96.2815 56.2824 105.409 57.1498 106.434 57.5046C110.14 58.7072 113.551 61.4868 115.561 65.2915H115.542Z" fill="#13ABD1"/>
</g>
<defs>
<clipPath id="clip0_1_1124">
<rect width="190" height="190" fill="white"/>
</clipPath>
</defs>
</svg>
