<svg width="190" height="190" viewBox="0 0 190 190" fill="none" xmlns="http://www.w3.org/2000/svg">
<g clip-path="url(#clip0_1_811)">
<path d="M95 190C147.467 190 190 147.467 190 95C190 42.5329 147.467 0 95 0C42.5329 0 0 42.5329 0 95C0 147.467 42.5329 190 95 190Z" fill="white"/>
<path d="M83.5273 27.2441H106.651" stroke="#757575" stroke-width="0.85" stroke-miterlimit="10"/>
<path d="M83.5273 35.9578H106.651" stroke="#757575" stroke-width="0.85" stroke-miterlimit="10"/>
<path d="M83.5273 17.8015H106.651" stroke="#757575" stroke-width="0.85" stroke-miterlimit="10"/>
<path d="M104.188 12.4393V32.4092C104.188 33.5132 103.853 34.5383 103.282 35.4057L101.369 39.3879L89.1075 39.1907L86.5841 34.9917C86.1702 34.2229 85.9336 33.3555 85.9336 32.4092V12.4393C85.9336 6.50553 93.8782 6.01269 98.1758 6.76181C101.271 7.31379 104.188 8.87117 104.188 12.4393Z" fill="#CBDFEE"/>
<path d="M118.539 169.793C112.053 175.629 104.286 175.668 95.4145 175.727C86.2674 175.767 77.9285 175.826 71.3047 169.596C70.5951 168.926 65.095 163.603 64.2473 156.29C63.163 150.888 64.7204 144.54 67.3423 139.967C67.3423 139.967 71.1076 133.442 73.8675 127.311C75.9966 122.599 74.8532 116.606 74.2027 114.083C74.1632 113.945 74.1238 113.807 74.1041 113.688C74.0252 113.432 73.9661 113.156 73.9267 112.9C73.8084 112.368 73.7295 111.835 73.6704 111.303C73.5718 110.515 72.8621 102.629 78.4214 97.267C83.1329 92.7329 89.323 92.93 95.0203 93.1075C100.619 93.2849 108.465 93.5411 112.802 99.4355C116.37 104.285 115.542 110.14 115.365 111.303C115.266 111.954 115.148 112.585 114.97 113.235C114.97 113.235 112.565 121.377 115.345 127.508C118.933 135.433 124.532 142.766 125.852 151.558C126.897 158.478 123.684 165.062 118.617 169.695C118.578 169.734 118.558 169.754 118.519 169.793H118.539Z" fill="#CBDFEE"/>
<path d="M116.054 168.473C112.94 170.819 109.983 171.883 108.681 172.297C106.533 172.987 104.837 173.184 95.4339 173.204C89.7761 173.204 86.9373 173.204 86.0108 173.086C82.6792 172.573 77.4156 171.765 72.8421 167.546C72.1127 166.876 67.2631 162.283 66.3957 154.91C65.7451 149.41 67.6179 145.112 70.161 139.316C73.118 132.555 73.8869 132.338 76.0357 127.33C77.9479 122.855 76.9228 117.178 76.3314 114.793C76.2919 114.655 76.2722 114.536 76.2328 114.418C76.1737 114.181 76.1145 113.925 76.0751 113.669C75.9765 113.176 75.8977 112.663 75.8385 112.151C75.7597 111.402 75.1091 103.93 80.1164 98.8442C84.3548 94.5466 89.9338 94.724 95.0593 94.9015C100.106 95.0789 107.163 95.3155 111.086 100.894C114.3 105.488 113.551 111.047 113.393 112.151C113.314 112.762 113.196 113.373 113.038 113.984C113.038 113.984 112.506 115.916 112.269 118.578C112.151 119.957 112.072 123.23 113.373 127.508C114.122 129.972 114.655 130.563 117.493 136.064C122.087 144.954 122.737 147.399 123.033 148.582C124.235 153.569 123.703 156.546 123.565 157.275C123.447 157.926 122.856 160.745 120.805 163.722C119.169 166.107 117.355 167.487 116.054 168.473Z" stroke="#516B7A" stroke-width="0.29" stroke-miterlimit="10"/>
<path d="M101.111 97.8191L96.4585 99.8102C95.7093 100.126 94.8617 100.126 94.1125 99.8102L89.4207 97.8191C88.2773 97.346 87.5676 96.2026 87.607 94.9804L89.1841 40.1567L101.525 40.2159L102.925 95.0001C102.964 96.2223 102.235 97.346 101.111 97.8388V97.8191Z" fill="#BCA495"/>
<path d="M101.111 97.8191L96.4585 99.8102C95.7093 100.126 94.8617 100.126 94.1125 99.8102L89.4207 97.8191C88.2773 97.346 87.5676 96.2026 87.607 94.9804L89.2235 40.7679L101.446 40.4722L102.925 94.9804C102.964 96.2026 102.235 97.3263 101.111 97.8191Z" fill="#BCA495"/>
<path d="M101.111 97.819L96.4585 99.8101C95.7093 100.126 94.8617 100.126 94.1125 99.8101L89.4207 97.819C88.2773 97.3459 87.5676 96.2025 87.607 94.9803L89.2235 41.0635L101.446 40.6692L102.925 94.9803C102.964 96.2025 102.235 97.3262 101.111 97.819Z" fill="#BCA495"/>
<path d="M95.0599 131.45C100.036 131.45 104.069 127.417 104.069 122.441C104.069 117.466 100.036 113.432 95.0599 113.432C90.0843 113.432 86.0508 117.466 86.0508 122.441C86.0508 127.417 90.0843 131.45 95.0599 131.45Z" fill="#757575"/>
<path d="M95.0605 133.205C101.005 133.205 105.824 128.386 105.824 122.441C105.824 116.497 101.005 111.678 95.0605 111.678C89.1159 111.678 84.2969 116.497 84.2969 122.441C84.2969 128.386 89.1159 133.205 95.0605 133.205Z" stroke="#516B7A" stroke-width="0.33" stroke-miterlimit="10"/>
<path d="M103.476 155.067H86.6603C85.4845 155.067 84.5312 156.021 84.5312 157.196V161.218C84.5312 162.394 85.4845 163.347 86.6603 163.347H103.476C104.652 163.347 105.605 162.394 105.605 161.218V157.196C105.605 156.021 104.652 155.067 103.476 155.067Z" fill="#516B7A"/>
<path d="M103.614 156.132H86.3846C86.047 156.132 85.7734 156.406 85.7734 156.743V156.94C85.7734 157.278 86.047 157.551 86.3846 157.551H103.614C103.952 157.551 104.225 157.278 104.225 156.94V156.743C104.225 156.406 103.952 156.132 103.614 156.132Z" fill="#BCA495"/>
<mask id="mask0_1_811" style="mask-type:luminance" maskUnits="userSpaceOnUse" x="87" y="39" width="16" height="62">
<path d="M101.13 97.8389L96.478 99.8299C95.7289 100.145 94.8812 100.145 94.1321 99.8299L89.4402 97.8389C88.2968 97.3657 87.5871 96.2223 87.6266 95.0001L89.2431 39.1514L101.466 39.2499L102.944 95.0001C102.983 96.2223 102.254 97.346 101.13 97.8389Z" fill="white"/>
</mask>
<g mask="url(#mask0_1_811)">
<path d="M89.0039 39.2894L101.581 39.0923" stroke="#512526" stroke-width="0.64" stroke-miterlimit="10"/>
<path d="M87.2891 45.381L103.099 45.2825" stroke="#512526" stroke-width="0.64" stroke-miterlimit="10"/>
<path d="M87.8242 51.7089L103.497 51.6104" stroke="#512526" stroke-width="0.64" stroke-miterlimit="10"/>
<path d="M87.2891 57.15L103.632 57.0317" stroke="#512526" stroke-width="0.64" stroke-miterlimit="10"/>
<path d="M86.8945 62.9655L103.691 62.8669" stroke="#512526" stroke-width="0.64" stroke-miterlimit="10"/>
<path d="M86.3047 68.8007L103.771 68.7021" stroke="#512526" stroke-width="0.64" stroke-miterlimit="10"/>
<path d="M86.8359 74.5373L103.297 74.4387" stroke="#512526" stroke-width="0.64" stroke-miterlimit="10"/>
<path d="M86.6406 79.7614L103.377 79.6628" stroke="#512526" stroke-width="0.64" stroke-miterlimit="10"/>
<path d="M86.8359 84.414L103.376 84.3154" stroke="#512526" stroke-width="0.64" stroke-miterlimit="10"/>
<path d="M86.4414 88.5539L103.375 88.4553" stroke="#512526" stroke-width="0.64" stroke-miterlimit="10"/>
<path d="M86.4414 91.8264L103.829 91.7278" stroke="#512526" stroke-width="0.64" stroke-miterlimit="10"/>
<path d="M86.3047 95.0001L103.968 94.8818" stroke="#512526" stroke-width="0.64" stroke-miterlimit="10"/>
</g>
<path d="M89.1055 39.9792L101.545 39.9595" stroke="#512526" stroke-width="0.85" stroke-miterlimit="10"/>
<path d="M90.0117 33.0991V165.082" stroke="#A08072" stroke-width="0.3" stroke-miterlimit="10"/>
<path d="M92.1211 22.6116V165.082" stroke="#A08072" stroke-width="0.3" stroke-miterlimit="10"/>
<path d="M94.2305 15.968V165.082" stroke="#A08072" stroke-width="0.3" stroke-miterlimit="10"/>
<path d="M96.3398 15.968V165.082" stroke="#A08072" stroke-width="0.3" stroke-miterlimit="10"/>
<path d="M98.4297 23.0059V165.082" stroke="#A08072" stroke-width="0.3" stroke-miterlimit="10"/>
<path d="M100.539 33.0991V165.082" stroke="#A08072" stroke-width="0.3" stroke-miterlimit="10"/>
<path d="M100.639 33.9863C101.717 33.9863 102.591 33.1125 102.591 32.0347C102.591 30.9568 101.717 30.083 100.639 30.083C99.5613 30.083 98.6875 30.9568 98.6875 32.0347C98.6875 33.1125 99.5613 33.9863 100.639 33.9863Z" fill="#757575" stroke="#BCA495" stroke-width="0.3" stroke-miterlimit="10"/>
<path d="M90.0142 33.9863C91.092 33.9863 91.9658 33.1125 91.9658 32.0347C91.9658 30.9568 91.092 30.083 90.0142 30.083C88.9363 30.083 88.0625 30.9568 88.0625 32.0347C88.0625 33.1125 88.9363 33.9863 90.0142 33.9863Z" fill="#757575" stroke="#BCA495" stroke-width="0.3" stroke-miterlimit="10"/>
<path d="M90.6626 24.7998C91.7405 24.7998 92.6142 23.926 92.6142 22.8481C92.6142 21.7703 91.7405 20.8965 90.6626 20.8965C89.5847 20.8965 88.7109 21.7703 88.7109 22.8481C88.7109 23.926 89.5847 24.7998 90.6626 24.7998Z" fill="#757575" stroke="#BCA495" stroke-width="0.3" stroke-miterlimit="10"/>
<path d="M99.9673 24.7998C101.045 24.7998 101.919 23.926 101.919 22.8481C101.919 21.7703 101.045 20.8965 99.9673 20.8965C98.8894 20.8965 98.0156 21.7703 98.0156 22.8481C98.0156 23.926 98.8894 24.7998 99.9673 24.7998Z" fill="#757575" stroke="#BCA495" stroke-width="0.3" stroke-miterlimit="10"/>
<path d="M90.3086 11.6114C91.4717 11.3354 92.8122 11.71 93.5022 12.6956C93.6599 12.9322 93.7782 13.1885 93.8965 13.4645C94.2316 14.3516 94.3302 15.3373 94.1922 16.2835" stroke="#A08072" stroke-width="0.3" stroke-miterlimit="10"/>
<path d="M100.225 11.5523C99.0621 11.2763 97.7216 11.6509 97.0316 12.6366C96.8739 12.8731 96.7556 13.1294 96.6373 13.4054C96.3022 14.2925 96.2036 15.2782 96.3416 16.2244" stroke="#A08072" stroke-width="0.3" stroke-miterlimit="10"/>
<path d="M90.8813 15.1794C91.9592 15.1794 92.833 14.3056 92.833 13.2278C92.833 12.1499 91.9592 11.2761 90.8813 11.2761C89.8035 11.2761 88.9297 12.1499 88.9297 13.2278C88.9297 14.3056 89.8035 15.1794 90.8813 15.1794Z" fill="#757575" stroke="#BCA495" stroke-width="0.3" stroke-miterlimit="10"/>
<path d="M99.4751 15.1794C100.553 15.1794 101.427 14.3056 101.427 13.2278C101.427 12.1499 100.553 11.2761 99.4751 11.2761C98.3972 11.2761 97.5234 12.1499 97.5234 13.2278C97.5234 14.3056 98.3972 15.1794 99.4751 15.1794Z" fill="#757575" stroke="#BCA495" stroke-width="0.3" stroke-miterlimit="10"/>
<path d="M109.59 18.0576V16.8945C109.59 15.9364 108.813 15.1597 107.855 15.1597C106.897 15.1597 106.12 15.9364 106.12 16.8945V18.0576C106.12 19.0157 106.897 19.7924 107.855 19.7924C108.813 19.7924 109.59 19.0157 109.59 18.0576Z" fill="#BCA495"/>
<path d="M83.8438 18.0576V16.8945C83.8438 15.9364 83.0671 15.1597 82.109 15.1597C81.1508 15.1597 80.3742 15.9364 80.3742 16.8945V18.0576C80.3742 19.0157 81.1508 19.7924 82.109 19.7924C83.0671 19.7924 83.8438 19.0157 83.8438 18.0576Z" fill="#BCA495"/>
<path d="M83.8438 27.3232V26.1601C83.8438 25.202 83.0671 24.4253 82.109 24.4253C81.1508 24.4253 80.3742 25.202 80.3742 26.1601V27.3232C80.3742 28.2813 81.1508 29.058 82.109 29.058C83.0671 29.058 83.8438 28.2813 83.8438 27.3232Z" fill="#BCA495"/>
<path d="M83.8438 36.3124V35.1493C83.8438 34.1912 83.0671 33.4146 82.1089 33.4146C81.1508 33.4146 80.3742 34.1912 80.3742 35.1493V36.3124C80.3742 37.2706 81.1508 38.0473 82.1089 38.0473C83.0671 38.0473 83.8438 37.2706 83.8438 36.3124Z" fill="#BCA495"/>
<path d="M109.59 27.5202V26.3571C109.59 25.399 108.813 24.6223 107.855 24.6223C106.897 24.6223 106.12 25.399 106.12 26.3571V27.5202C106.12 28.4783 106.897 29.255 107.855 29.255C108.813 29.255 109.59 28.4783 109.59 27.5202Z" fill="#BCA495"/>
<path d="M109.59 36.4111V35.248C109.59 34.2899 108.813 33.5132 107.855 33.5132C106.897 33.5132 106.12 34.2899 106.12 35.248V36.4111C106.12 37.3692 106.897 38.1459 107.855 38.1459C108.813 38.1459 109.59 37.3692 109.59 36.4111Z" fill="#BCA495"/>
<path d="M90.0112 166.048C90.4467 166.048 90.7998 165.695 90.7998 165.259C90.7998 164.824 90.4467 164.471 90.0112 164.471C89.5757 164.471 89.2227 164.824 89.2227 165.259C89.2227 165.695 89.5757 166.048 90.0112 166.048Z" fill="#BCA495"/>
<path d="M92.1206 166.048C92.5561 166.048 92.9091 165.695 92.9091 165.259C92.9091 164.824 92.5561 164.471 92.1206 164.471C91.6851 164.471 91.332 164.824 91.332 165.259C91.332 165.695 91.6851 166.048 92.1206 166.048Z" fill="#BCA495"/>
<path d="M94.2299 166.048C94.6654 166.048 95.0185 165.695 95.0185 165.259C95.0185 164.824 94.6654 164.471 94.2299 164.471C93.7944 164.471 93.4414 164.824 93.4414 165.259C93.4414 165.695 93.7944 166.048 94.2299 166.048Z" fill="#BCA495"/>
<path d="M96.3393 166.048C96.7748 166.048 97.1279 165.695 97.1279 165.259C97.1279 164.824 96.7748 164.471 96.3393 164.471C95.9038 164.471 95.5508 164.824 95.5508 165.259C95.5508 165.695 95.9038 166.048 96.3393 166.048Z" fill="#BCA495"/>
<path d="M98.4487 166.048C98.8842 166.048 99.2372 165.695 99.2372 165.259C99.2372 164.824 98.8842 164.471 98.4487 164.471C98.0132 164.471 97.6602 164.824 97.6602 165.259C97.6602 165.695 98.0132 166.048 98.4487 166.048Z" fill="#BCA495"/>
<path d="M100.558 166.048C100.994 166.048 101.347 165.695 101.347 165.259C101.347 164.824 100.994 164.471 100.558 164.471C100.123 164.471 99.7695 164.824 99.7695 165.259C99.7695 165.695 100.123 166.048 100.558 166.048Z" fill="#BCA495"/>
<path d="M113.67 155.048L116.43 151.42L116.273 155.974L120.57 157.512L116.174 158.754L116.095 163.347L113.513 159.523L109.176 160.844L111.995 157.197L109.373 153.549L113.67 155.048Z" fill="#B4925C"/>
<path d="M78.1655 142.037L78.3232 137.463L80.8268 141.288L85.223 140.046L82.3448 143.594L84.9273 147.399L80.6297 145.763L77.8304 149.35L78.0275 144.757L73.7891 143.279L78.1655 142.037Z" fill="#B4925C"/>
</g>
<defs>
<clipPath id="clip0_1_811">
<rect width="190" height="190" fill="white"/>
</clipPath>
</defs>
</svg>
