<svg width="190" height="190" viewBox="0 0 190 190" fill="none" xmlns="http://www.w3.org/2000/svg">
<g clip-path="url(#clip0_1_924)">
<path d="M95 190C147.467 190 190 147.467 190 95C190 42.5329 147.467 0 95 0C42.5329 0 0 42.5329 0 95C0 147.467 42.5329 190 95 190Z" fill="white"/>
<mask id="mask0_1_924" style="mask-type:luminance" maskUnits="userSpaceOnUse" x="0" y="0" width="190" height="190">
<path d="M95 190C147.467 190 190 147.467 190 95C190 42.5329 147.467 0 95 0C42.5329 0 0 42.5329 0 95C0 147.467 42.5329 190 95 190Z" fill="white"/>
</mask>
<g mask="url(#mask0_1_924)">
<path d="M8.4375 15.0415C13.3462 25.6474 22.9467 33.316 33.0007 39.2696C68.7809 60.442 113.432 63.813 153.747 53.5817C164.195 50.94 174.722 47.2536 182.903 40.2355" stroke="#E9D7B8" stroke-width="1.29" stroke-miterlimit="10"/>
<path d="M26.4734 36.0957L20.4805 78.4997L55.4327 51.0781L26.4734 36.0957Z" fill="#D80E21"/>
<path d="M61.2305 53.0298L69.0568 95.1381L93.4623 58.0173L61.2305 53.0298Z" fill="#13ABD1"/>
<path d="M99.0195 59.831L113.805 100.027L131.626 59.3381L99.0195 59.831Z" fill="#4EB763"/>
<path d="M139.453 57.4257L163.247 93.0285L171.034 49.3037L139.453 57.4257Z" fill="#FCBB44"/>
<path d="M119.7 117.158L107.812 158.281L87.1523 118.972L119.7 117.158Z" fill="#D80E21"/>
<path d="M158.279 106.947L155.283 149.666L126.816 115.561L158.279 106.947Z" fill="#D4540A"/>
<path d="M191.676 90.6038L197.255 133.067L162.559 105.31L191.676 90.6038Z" fill="#FCBB44"/>
<path d="M80.4117 119.11L59.9686 158.025L48.1602 115.187L80.4117 119.11Z" fill="#13ABD1"/>
<path d="M42.3051 115.207L15.8889 148.917L11.4336 104.699L42.3051 115.207Z" fill="#4EB763"/>
<path d="M4.5725 100.481L-29.0195 127.035L-22.9674 83.0339L4.5725 100.481Z" fill="#FCBB44"/>
<path d="M-7.94531 89.8744C7.80588 106.059 30.792 112.939 53.1275 116.172C102.668 123.368 155.678 114.891 196.623 86.1091" stroke="#E9D7B8" stroke-width="1.29" stroke-miterlimit="10"/>
</g>
</g>
<defs>
<clipPath id="clip0_1_924">
<rect width="190" height="190" fill="white"/>
</clipPath>
</defs>
</svg>
