<svg width="190" height="190" viewBox="0 0 190 190" fill="none" xmlns="http://www.w3.org/2000/svg">
<g clip-path="url(#clip0_1_1007)">
<path d="M95 190.211C147.467 190.211 190 147.631 190 95.1057C190 42.5803 147.467 0 95 0C42.5329 0 0 42.5803 0 95.1057C0 147.631 42.5329 190.211 95 190.211Z" fill="white"/>
<path d="M146.001 84.7839H44.1797V98.5594H146.001V84.7839Z" fill="#E9D7B8"/>
<path d="M52.5762 95.382C54.5577 95.382 56.164 93.7739 56.164 91.7901C56.164 89.8064 54.5577 88.1982 52.5762 88.1982C50.5946 88.1982 48.9883 89.8064 48.9883 91.7901C48.9883 93.7739 50.5946 95.382 52.5762 95.382Z" fill="white" stroke="#CBDFEE" stroke-width="0.6" stroke-miterlimit="10"/>
<path d="M69.5488 95.382C71.5304 95.382 73.1367 93.7739 73.1367 91.7901C73.1367 89.8064 71.5304 88.1982 69.5488 88.1982C67.5673 88.1982 65.9609 89.8064 65.9609 91.7901C65.9609 93.7739 67.5673 95.382 69.5488 95.382Z" fill="white" stroke="#CBDFEE" stroke-width="0.6" stroke-miterlimit="10"/>
<path d="M86.9551 95.382C88.9366 95.382 90.5429 93.7739 90.5429 91.7901C90.5429 89.8064 88.9366 88.1982 86.9551 88.1982C84.9735 88.1982 83.3672 89.8064 83.3672 91.7901C83.3672 93.7739 84.9735 95.382 86.9551 95.382Z" fill="white" stroke="#CBDFEE" stroke-width="0.6" stroke-miterlimit="10"/>
<path d="M51.5691 75.824H138.013L145.997 84.8037L44.0977 84.8629L51.5691 75.824Z" fill="#9EAFB3"/>
<path d="M145.88 147.07H44.0586L44.1374 98.4412L145.88 98.5596V147.07Z" fill="#516B7A"/>
<path d="M143.93 99.5068H97.1098C96.6198 99.5068 96.2227 99.9045 96.2227 100.395V145.116C96.2227 145.606 96.6198 146.004 97.1098 146.004H143.93C144.42 146.004 144.817 145.606 144.817 145.116V100.395C144.817 99.9045 144.42 99.5068 143.93 99.5068Z" fill="#CBDFEE"/>
<path d="M76.6279 102.546H62.8086C62.3405 102.546 61.9609 102.926 61.9609 103.395V105.862C61.9609 106.33 62.3405 106.71 62.8086 106.71H76.6279C77.096 106.71 77.4756 106.33 77.4756 105.862V103.395C77.4756 102.926 77.096 102.546 76.6279 102.546Z" fill="#E9D7B8"/>
<path d="M117.828 131.755V117.92C117.828 117.451 117.449 117.072 116.98 117.072H114.516C114.048 117.072 113.669 117.451 113.669 117.92V131.755C113.669 132.223 114.048 132.603 114.516 132.603H116.98C117.449 132.603 117.828 132.223 117.828 131.755Z" fill="#E9D7B8"/>
<path d="M127.391 131.774V117.94C127.391 117.471 127.011 117.091 126.543 117.091H124.079C123.611 117.091 123.231 117.471 123.231 117.94V131.774C123.231 132.243 123.611 132.623 124.079 132.623H126.543C127.011 132.623 127.391 132.243 127.391 131.774Z" fill="#E9D7B8"/>
<path d="M94.0146 99.3489H46.0514C45.5505 99.3489 45.1445 99.7553 45.1445 100.257V144.997C45.1445 145.499 45.5505 145.905 46.0514 145.905H94.0146C94.5155 145.905 94.9215 145.499 94.9215 144.997V100.257C94.9215 99.7553 94.5155 99.3489 94.0146 99.3489Z" fill="#CBDFEE"/>
<path d="M80.7282 109.177H60.0486C58.078 109.177 56.4805 110.777 56.4805 112.749V132.327C56.4805 134.3 58.078 135.899 60.0486 135.899H80.7282C82.6989 135.899 84.2964 134.3 84.2964 132.327V112.749C84.2964 110.777 82.6989 109.177 80.7282 109.177Z" fill="#516B7A"/>
<path d="M55.3358 31.281H134.269C136.359 31.281 138.054 32.9783 138.054 35.0702V75.9624H51.5508V35.0702C51.5508 32.9783 53.2462 31.281 55.3358 31.281Z" fill="#E9D7B8"/>
<path d="M64.9756 75.0938C71.2142 75.0938 76.2715 70.0308 76.2715 63.7853C76.2715 57.5398 71.2142 52.4768 64.9756 52.4768C58.737 52.4768 53.6797 57.5398 53.6797 63.7853C53.6797 70.0308 58.737 75.0938 64.9756 75.0938Z" fill="#9EAFB3"/>
<path d="M64.9775 73.6137C70.3995 73.6137 74.7949 69.2134 74.7949 63.7853C74.7949 58.3573 70.3995 53.957 64.9775 53.957C59.5556 53.957 55.1602 58.3573 55.1602 63.7853C55.1602 69.2134 59.5556 73.6137 64.9775 73.6137Z" fill="#9EAFB3" stroke="#516B7A" stroke-width="0.21" stroke-miterlimit="10"/>
<path d="M90.6436 75.1136C96.8821 75.1136 101.939 70.0506 101.939 63.8051C101.939 57.5596 96.8821 52.4966 90.6436 52.4966C84.405 52.4966 79.3477 57.5596 79.3477 63.8051C79.3477 70.0506 84.405 75.1136 90.6436 75.1136Z" fill="#9EAFB3"/>
<path d="M90.4463 73.6334C95.8683 73.6334 100.264 69.2332 100.264 63.8051C100.264 58.3771 95.8683 53.9768 90.4463 53.9768C85.0243 53.9768 80.6289 58.3771 80.6289 63.8051C80.6289 69.2332 85.0243 73.6334 90.4463 73.6334Z" fill="#9EAFB3" stroke="#516B7A" stroke-width="0.21" stroke-miterlimit="10"/>
<path d="M120.629 99.5266V146.024" stroke="#516B7A" stroke-width="0.6" stroke-miterlimit="10"/>
<path d="M145.919 146.872H44V151.411H145.919V146.872Z" fill="#E9D7B8"/>
<path d="M44 151.411H56.4196V156.286C56.4196 157.47 55.4733 158.417 54.2905 158.417H46.0305C44.9068 158.417 44 157.51 44 156.385V151.411Z" fill="#E9D7B8"/>
<path d="M133.461 151.411H145.92V156.286C145.92 157.47 144.974 158.417 143.791 158.417H135.491C134.368 158.417 133.461 157.51 133.461 156.385V151.411Z" fill="#E9D7B8"/>
<path d="M87.7441 80.8763C92.7523 80.8763 96.8123 80.0457 96.8123 79.0212C96.8123 77.9966 92.7523 77.166 87.7441 77.166C82.7358 77.166 78.6758 77.9966 78.6758 79.0212C78.6758 80.0457 82.7358 80.8763 87.7441 80.8763Z" fill="#516B7A"/>
<path d="M96.0439 81.2908C93.6782 81.6066 90.8789 81.8237 87.7444 81.8237C84.6099 81.8237 81.8303 81.5869 79.445 81.2908C79.3858 81.2908 79.1098 81.2908 78.8733 81.0935C78.7353 80.9751 78.6367 80.7974 78.6367 80.6001V79.0212H96.8324V80.6001C96.8324 80.9751 96.4776 81.2908 96.0241 81.2908H96.0439Z" fill="#516B7A"/>
<path d="M62.2167 80.8763C67.225 80.8763 71.285 80.0457 71.285 79.0212C71.285 77.9966 67.225 77.166 62.2167 77.166C57.2084 77.166 53.1484 77.9966 53.1484 79.0212C53.1484 80.0457 57.2084 80.8763 62.2167 80.8763Z" fill="#516B7A"/>
<path d="M70.5165 81.2908C68.1509 81.6066 65.3515 81.8237 62.2171 81.8237C59.0826 81.8237 56.303 81.5869 53.9176 81.2908C53.8585 81.2908 53.5825 81.2908 53.3459 81.0935C53.2079 80.9751 53.1094 80.7974 53.1094 80.6001V79.0212H71.3051V80.6001C71.3051 80.9751 70.9502 81.2908 70.4968 81.2908H70.5165Z" fill="#516B7A"/>
<path d="M139.236 38.2476H50.3672V39.9251H139.236V38.2476Z" fill="white"/>
<path d="M139.236 68.5615H50.3672V70.239H139.236V68.5615Z" fill="white"/>
<path d="M118.891 49.418H114.613V61.9303H118.891V49.418Z" fill="#516B7A"/>
<path d="M115.993 52.7335C116.766 52.7335 117.393 51.4965 117.393 49.9705C117.393 48.4445 116.766 47.2075 115.993 47.2075C115.22 47.2075 114.594 48.4445 114.594 49.9705C114.594 51.4965 115.22 52.7335 115.993 52.7335Z" fill="#516B7A"/>
<path d="M115.836 47.1877C117.197 47.168 118.576 47.1088 119.937 47.0693C119.937 47.0693 120.587 47.3851 120.706 49.0429C120.824 50.7007 120.903 55.1215 120.903 55.1215H117.098C117.098 53.3847 117.098 51.6677 117.098 49.931C117.098 49.3784 117.078 48.8061 116.861 48.2929C116.664 47.7996 116.29 47.4048 115.797 47.1877H115.836Z" fill="#9EAFB3"/>
<path d="M128.158 68.1273L105.684 68.0681L105.625 61.6935L128.158 61.5356V68.1273Z" fill="#516B7A"/>
<path d="M122.323 61.4368H111.461V68.3245H122.323V61.4368Z" fill="#CBDFEE"/>
<path d="M111.147 61.4172H107.461V68.3247H111.147V61.4172Z" fill="#CBDFEE"/>
<path d="M126.366 61.4172H122.68V68.3247H126.366V61.4172Z" fill="#CBDFEE"/>
<path d="M128.394 68.3247H126.758V61.4172H128.394C128.552 62.3053 128.67 63.3513 128.69 64.496C128.709 65.9564 128.571 67.259 128.394 68.305V68.3247Z" fill="#CBDFEE"/>
<path d="M107.106 68.3247H105.469C105.331 67.259 105.233 66.0354 105.253 64.6736C105.253 63.4895 105.351 62.3843 105.469 61.4172H107.106V68.3247Z" fill="#CBDFEE"/>
<path d="M108.801 54.1543H109.786C110.26 54.1543 110.654 54.549 110.654 55.0227V62.384H107.953V55.0227C107.953 54.549 108.347 54.1543 108.821 54.1543H108.801Z" fill="#CBDFEE"/>
<path d="M124 54.1543H124.986C125.459 54.1543 125.853 54.549 125.853 55.0227V62.384H123.152V55.0227C123.152 54.549 123.547 54.1543 124.02 54.1543H124Z" fill="#CBDFEE"/>
<path d="M109.313 56.0095C110.042 56.0095 110.634 55.5411 110.634 54.9635C110.634 54.3858 110.042 53.9175 109.313 53.9175C108.584 53.9175 107.992 54.3858 107.992 54.9635C107.992 55.5411 108.584 56.0095 109.313 56.0095Z" fill="#CBDFEE"/>
<path d="M124.493 56.0095C125.222 56.0095 125.814 55.5411 125.814 54.9635C125.814 54.3858 125.222 53.9175 124.493 53.9175C123.763 53.9175 123.172 54.3858 123.172 54.9635C123.172 55.5411 123.763 56.0095 124.493 56.0095Z" fill="#CBDFEE"/>
<path d="M107.992 61.3777C108.288 61.4763 108.761 61.5945 109.333 61.5945C109.885 61.5945 110.338 61.4763 110.634 61.3777" stroke="#516B7A" stroke-width="0.14" stroke-miterlimit="10"/>
<path d="M123.133 61.3777C123.409 61.496 123.921 61.6734 124.592 61.6537C125.104 61.634 125.518 61.496 125.774 61.3777" stroke="#516B7A" stroke-width="0.14" stroke-miterlimit="10"/>
<path d="M116.368 54.3322C116.368 53.4243 116.506 49.9509 116.171 49.2404C116.112 49.1022 116.033 48.9838 115.895 48.9246C115.481 48.747 115.441 49.4377 115.441 49.6746C115.441 52.6546 115.441 55.6347 115.441 58.6345V61.1212H118.891L118.911 55.0821L117.117 55.1611L116.388 54.3519L116.368 54.3322Z" fill="#CBDFEE"/>
<path d="M102.648 78.0344H132.357L139.257 84.488L139.178 98.5989H104.166V84.6656L102.648 78.0344Z" fill="white"/>
<path d="M102.492 77.9753H132.24L138.213 84.271" stroke="#E9D7B8" stroke-width="0.6" stroke-miterlimit="10"/>
<path d="M102 84.271L141.703 84.3499" stroke="#9EAFB3" stroke-width="0.45" stroke-miterlimit="10"/>
<path d="M52.2812 88.8101L52.5572 91.6125" stroke="#516B7A" stroke-width="0.21" stroke-miterlimit="10"/>
<path d="M67.4219 93.8428L69.5509 91.7903" stroke="#516B7A" stroke-width="0.21" stroke-miterlimit="10"/>
<path d="M84.0195 91.6125H87.0751" stroke="#516B7A" stroke-width="0.21" stroke-miterlimit="10"/>
<path d="M56.4219 118.216H84.435" stroke="#E9D7B8" stroke-width="0.57" stroke-miterlimit="10"/>
<path d="M56.4219 126.544H84.435" stroke="#E9D7B8" stroke-width="0.57" stroke-miterlimit="10"/>
</g>
<defs>
<clipPath id="clip0_1_1007">
<rect width="190" height="190" fill="white"/>
</clipPath>
</defs>
</svg>
