<svg width="190" height="190" viewBox="0 0 190 190" fill="none" xmlns="http://www.w3.org/2000/svg">
<g clip-path="url(#clip0_1_1089)">
<path d="M95 190C147.467 190 190 147.467 190 95C190 42.5329 147.467 0 95 0C42.5329 0 0 42.5329 0 95C0 147.467 42.5329 190 95 190Z" fill="#BE9EA7"/>
<path d="M47.8999 63.8464C47.5764 62.7727 46.4437 62.1645 45.3699 62.4881C44.2962 62.8117 43.6881 63.9444 44.0116 65.0181L71.8031 157.242C72.1267 158.316 73.2594 158.924 74.3331 158.601C75.4069 158.277 76.015 157.144 75.6914 156.071L47.8999 63.8464Z" fill="white"/>
<path d="M38.224 56.105L38.4014 41.4972C38.4014 40.8466 39.2491 40.5904 39.6237 41.1226L47.9034 53.1677L61.8804 48.9292C62.4915 48.7321 63.004 49.4615 62.5901 49.9741L53.6204 61.5065L62.1366 73.4727C62.5112 74.005 61.9789 74.695 61.3678 74.4781L47.4894 69.53L38.8351 81.2202C38.4409 81.7327 37.6326 81.4567 37.6326 80.8062L37.948 66.0407L24.2865 61.6642C23.6753 61.4671 23.6753 60.5997 24.2865 60.4026L38.2043 56.0853L38.224 56.105Z" fill="white" stroke="#B4925C" stroke-width="0.95" stroke-miterlimit="10"/>
<path d="M159.565 118.369C160.717 110.483 145.476 101.728 125.524 98.8134C105.572 95.8992 88.464 99.9296 87.3122 107.816C86.1603 115.702 101.401 124.457 121.353 127.371C141.305 130.285 158.413 126.255 159.565 118.369Z" fill="#BBAA80"/>
<path d="M88.5357 104.108C87.6289 102.077 87.1754 99.8101 87.3134 97.2276C87.55 93.0681 88.1808 88.8888 88.5357 84.7292L88.8117 78.48L89.0088 71.3831L95.258 83.2112L100.127 94.4086C100.127 94.4086 101.271 98.1345 103.143 96.7348C105.016 95.3351 109.55 88.8493 109.55 88.8493L113.257 84.9855L117.14 94.3692L120.965 101.229L122.522 103.556C122.522 103.556 123.488 104.108 124.809 103.674C126.13 103.24 135.434 97.0502 135.434 97.0502L142.886 92.0429L147.065 105.034C147.065 105.034 147.263 106.532 148.091 106.651C148.919 106.769 151.383 102.728 151.383 102.728L161.969 89.1648L166.799 83.3689L164.887 96.5179C164.059 102.195 163.27 111.283 159.446 115.798C156.291 119.524 149.549 120.805 144.897 121.436C138.589 122.284 132.142 121.85 125.873 120.825C115.149 119.051 93.8781 115.995 88.5357 104.108Z" fill="#B4925C"/>
<path d="M89.2231 72.8223C91.1176 72.8223 92.6533 71.2865 92.6533 69.3921C92.6533 67.4977 91.1176 65.9619 89.2231 65.9619C87.3287 65.9619 85.793 67.4977 85.793 69.3921C85.793 71.2865 87.3287 72.8223 89.2231 72.8223Z" fill="white"/>
<path d="M113.391 85.9712C115.286 85.9712 116.821 84.4354 116.821 82.541C116.821 80.6466 115.286 79.1108 113.391 79.1108C111.497 79.1108 109.961 80.6466 109.961 82.541C109.961 84.4354 111.497 85.9712 113.391 85.9712Z" fill="white"/>
<path d="M143.594 92.8513C145.489 92.8513 147.024 91.3156 147.024 89.4211C147.024 87.5267 145.489 85.991 143.594 85.991C141.7 85.991 140.164 87.5267 140.164 89.4211C140.164 91.3156 141.7 92.8513 143.594 92.8513Z" fill="white"/>
<path d="M167.84 84.3547C169.735 84.3547 171.27 82.819 171.27 80.9246C171.27 79.0301 169.735 77.4944 167.84 77.4944C165.946 77.4944 164.41 79.0301 164.41 80.9246C164.41 82.819 165.946 84.3547 167.84 84.3547Z" fill="white"/>
<path d="M87.9219 103.595C91.766 111.914 102.155 115.246 110.376 117.217C121.672 119.938 134.19 121.811 145.821 120.845C151.045 120.411 156.269 119.011 160.586 116.035" stroke="#AC8080" stroke-width="1.35" stroke-miterlimit="10" stroke-linecap="round"/>
<path d="M95 190C147.467 190 190 147.467 190 95C190 42.5329 147.467 0 95 0C42.5329 0 0 42.5329 0 95C0 147.467 42.5329 190 95 190Z" fill="white"/>
<path d="M47.8999 63.8464C47.5764 62.7727 46.4437 62.1645 45.3699 62.4881C44.2962 62.8117 43.6881 63.9444 44.0116 65.0181L71.8031 157.242C72.1267 158.316 73.2594 158.924 74.3331 158.601C75.4069 158.277 76.015 157.144 75.6914 156.071L47.8999 63.8464Z" fill="#E9D7B8"/>
<path d="M38.224 56.105L38.4014 41.4972C38.4014 40.8466 39.2491 40.5904 39.6237 41.1226L47.9034 53.1677L61.8804 48.9292C62.4915 48.7321 63.004 49.4615 62.5901 49.9741L53.6204 61.5065L62.1366 73.4727C62.5112 74.005 61.9789 74.695 61.3678 74.4781L47.4894 69.53L38.8351 81.2202C38.4409 81.7327 37.6326 81.4567 37.6326 80.8062L37.948 66.0407L24.2865 61.6642C23.6753 61.4671 23.6753 60.5997 24.2865 60.4026L38.2043 56.0853L38.224 56.105Z" fill="#EAA11C"/>
<path d="M159.565 118.369C160.717 110.483 145.476 101.728 125.524 98.8134C105.572 95.8992 88.464 99.9296 87.3122 107.816C86.1603 115.702 101.401 124.457 121.353 127.371C141.305 130.285 158.413 126.255 159.565 118.369Z" fill="#EAA11C"/>
<path d="M88.5357 104.108C87.6289 102.077 87.1754 99.8101 87.3134 97.2276C87.55 93.0681 88.1808 88.8888 88.5357 84.7292L88.8117 78.48L89.0088 71.3831L95.258 83.2112L100.127 94.4086C100.127 94.4086 101.271 98.1345 103.143 96.7348C105.016 95.3351 109.55 88.8493 109.55 88.8493L113.257 84.9855L117.14 94.3692L120.965 101.229L122.522 103.556C122.522 103.556 123.488 104.108 124.809 103.674C126.13 103.24 135.434 97.0502 135.434 97.0502L142.886 92.0429L147.065 105.034C147.065 105.034 147.263 106.532 148.091 106.651C148.919 106.769 151.383 102.728 151.383 102.728L161.969 89.1648L166.799 83.3689L164.887 96.5179C164.059 102.195 163.27 111.283 159.446 115.798C156.291 119.524 149.549 120.805 144.897 121.436C138.589 122.284 132.142 121.85 125.873 120.825C115.149 119.051 93.8781 115.995 88.5357 104.108Z" fill="#EAE2E2"/>
<path d="M89.2231 72.8223C91.1176 72.8223 92.6533 71.2865 92.6533 69.3921C92.6533 67.4977 91.1176 65.9619 89.2231 65.9619C87.3287 65.9619 85.793 67.4977 85.793 69.3921C85.793 71.2865 87.3287 72.8223 89.2231 72.8223Z" fill="#EAA11C"/>
<path d="M113.391 85.9712C115.286 85.9712 116.821 84.4354 116.821 82.541C116.821 80.6466 115.286 79.1108 113.391 79.1108C111.497 79.1108 109.961 80.6466 109.961 82.541C109.961 84.4354 111.497 85.9712 113.391 85.9712Z" fill="#EAA11C"/>
<path d="M143.594 92.8513C145.489 92.8513 147.024 91.3156 147.024 89.4211C147.024 87.5267 145.489 85.991 143.594 85.991C141.7 85.991 140.164 87.5267 140.164 89.4211C140.164 91.3156 141.7 92.8513 143.594 92.8513Z" fill="#EAA11C"/>
<path d="M167.84 84.3547C169.735 84.3547 171.27 82.819 171.27 80.9246C171.27 79.0301 169.735 77.4944 167.84 77.4944C165.946 77.4944 164.41 79.0301 164.41 80.9246C164.41 82.819 165.946 84.3547 167.84 84.3547Z" fill="#EAA11C"/>
</g>
<defs>
<clipPath id="clip0_1_1089">
<rect width="190" height="190" fill="white"/>
</clipPath>
</defs>
</svg>
