<svg width="190" height="190" viewBox="0 0 190 190" fill="none" xmlns="http://www.w3.org/2000/svg">
<g clip-path="url(#clip0_1_1136)">
<path d="M95 190C147.467 190 190 147.467 190 95C190 42.5329 147.467 0 95 0C42.5329 0 0 42.5329 0 95C0 147.467 42.5329 190 95 190Z" fill="white"/>
<mask id="mask0_1_1136" style="mask-type:luminance" maskUnits="userSpaceOnUse" x="0" y="0" width="190" height="190">
<path d="M95 190C147.467 190 190 147.467 190 95C190 42.5329 147.467 0 95 0C42.5329 0 0 42.5329 0 95C0 147.467 42.5329 190 95 190Z" fill="white"/>
</mask>
<g mask="url(#mask0_1_1136)">
<path d="M51.7286 105.705C47.1551 107.242 42.5027 108.839 38.7176 111.816C34.9326 114.793 32.153 119.504 32.7641 124.275C33.4541 129.716 38.1854 133.718 42.8969 136.517C47.9239 139.494 53.3254 141.8 58.9635 143.358C64.0891 144.777 69.4315 145.566 74.3796 147.537C79.3277 149.508 84.0393 152.899 86.0107 157.847C86.4246 158.872 86.7006 159.957 86.6021 161.06C86.3261 163.978 83.4676 165.91 80.7274 166.935C76.2524 168.571 71.2846 168.847 66.6519 167.724C65.0748 167.329 63.34 166.62 62.7486 165.102C61.6446 162.243 65.2522 159.897 68.2092 159.168C78.9532 156.507 90.3477 157.492 101.092 160.193C111.836 162.894 122.087 167.231 132.377 171.331C141.721 175.057 152.505 178.546 161.514 174.052" stroke="#9C8B8B" stroke-width="0.63" stroke-miterlimit="10"/>
</g>
<path d="M95.7474 134.21C103.053 134.21 108.975 128.288 108.975 120.982C108.975 113.677 103.053 107.755 95.7474 107.755C88.4418 107.755 82.5195 113.677 82.5195 120.982C82.5195 128.288 88.4418 134.21 95.7474 134.21Z" fill="#6A6553"/>
<path d="M138.388 131.529C145.694 131.529 151.616 125.607 151.616 118.302C151.616 110.996 145.694 105.074 138.388 105.074C131.082 105.074 125.16 110.996 125.16 118.302C125.16 125.607 131.082 131.529 138.388 131.529Z" fill="#6A6553"/>
<path d="M71.4236 64.2665C69.1171 71.8957 69.0777 80.0374 69.5902 87.982C69.7874 91.0968 69.9648 94.5861 67.9146 96.9517C65.8644 99.3173 60.8177 98.5682 60.8768 95.4535C60.8768 94.5269 61.3499 93.6792 61.5471 92.7724C62.1385 90.0125 60.384 87.7257 57.9789 85.9909C55.5739 84.2561 52.1634 85.1038 50.8623 87.7849C47.8461 93.9947 47.2153 101.407 50.0146 107.676C53.5039 115.463 62.7299 120.608 70.9505 118.321C75.3466 117.099 78.9739 114.103 82.759 111.579C84.1389 110.653 85.9526 109.785 87.3917 110.633C89.3433 111.796 88.6139 114.793 89.4616 116.882C90.7824 120.155 95.2771 120.352 98.7861 119.977C99.8901 119.859 101.033 119.721 101.921 119.07C103.084 118.203 103.478 116.685 104.188 115.423C106.336 111.658 111.186 110.554 115.484 110.081C120.925 109.47 126.957 109.43 131.274 112.801C134.212 115.088 135.887 118.617 138.47 121.278C141.052 123.94 145.488 125.674 148.405 123.348C151.579 114.95 154.043 106.296 155.759 97.5037C157.947 86.4049 158.676 73.9656 152.23 64.6608C148.189 58.8452 141.86 55.0602 135.473 52.0243C128.455 48.673 121.122 45.9722 113.591 43.9812C94.8828 39.0133 77.4954 44.3163 71.4433 64.2862L71.4236 64.2665Z" fill="#909AA0"/>
<path d="M82.8769 73.9853C84.3903 73.9853 85.6171 72.7584 85.6171 71.2451C85.6171 69.7317 84.3903 68.5049 82.8769 68.5049C81.3635 68.5049 80.1367 69.7317 80.1367 71.2451C80.1367 72.7584 81.3635 73.9853 82.8769 73.9853Z" fill="#555555"/>
<path d="M106.041 97.8585C106.908 98.3514 107.775 98.6668 108.643 98.6865C109.471 98.7062 110.279 98.4302 111.068 98.1345C114.793 96.7546 118.578 94.9803 121.674 92.4373C124.966 89.7365 127.528 85.8923 127.844 81.6342C127.982 79.8994 127.726 78.1646 127.331 76.4692C125.774 69.9046 121.713 63.9511 116.154 60.1069C111.738 57.0513 104.266 53.976 98.7466 55.2968C93.5619 56.5387 93.069 61.5066 92.7536 66.297C92.3199 72.8025 93.621 79.4066 96.4401 85.2812C97.9383 88.4157 101.881 95.4535 106.021 97.8585H106.041Z" fill="#555555"/>
<path d="M98.9622 136.754C106.268 136.754 112.19 130.831 112.19 123.526C112.19 116.22 106.268 110.298 98.9622 110.298C91.6567 110.298 85.7344 116.22 85.7344 123.526C85.7344 130.831 91.6567 136.754 98.9622 136.754Z" fill="#DEB26C"/>
<path d="M102.138 137.601C109.444 137.601 115.366 131.679 115.366 124.373C115.366 117.068 109.444 111.146 102.138 111.146C94.8325 111.146 88.9102 117.068 88.9102 124.373C88.9102 131.679 94.8325 137.601 102.138 137.601Z" fill="#E9D7B8" stroke="#E0CBA7" stroke-width="0.31" stroke-miterlimit="10"/>
<path d="M142.134 136.754C149.44 136.754 155.362 130.831 155.362 123.526C155.362 116.22 149.44 110.298 142.134 110.298C134.829 110.298 128.906 116.22 128.906 123.526C128.906 130.831 134.829 136.754 142.134 136.754Z" fill="#DEB26C"/>
<path d="M145.388 136.635C152.694 136.635 158.616 130.713 158.616 123.407C158.616 116.102 152.694 110.179 145.388 110.179C138.082 110.179 132.16 116.102 132.16 123.407C132.16 130.713 138.082 136.635 145.388 136.635Z" fill="#E9D7B8" stroke="#E0CBA7" stroke-width="0.31" stroke-miterlimit="10"/>
<path d="M59.4358 91.7305C59.8977 91.2686 59.2049 89.8269 57.8885 88.5105C56.572 87.194 55.1303 86.5013 54.6684 86.9632C54.2065 87.4251 54.8992 88.8668 56.2157 90.1832C57.5322 91.4997 58.9738 92.1925 59.4358 91.7305Z" fill="#555555"/>
</g>
<defs>
<clipPath id="clip0_1_1136">
<rect width="190" height="190" fill="white"/>
</clipPath>
</defs>
</svg>
