<svg width="340" height="262" viewBox="0 0 340 262" fill="none" xmlns="http://www.w3.org/2000/svg">
<g clip-path="url(#clip0_1_707)">
<path d="M223.461 61.5347L223.829 120.663L231.957 116.967V53.0264L223.461 61.5347Z" fill="#4DD0BE"/>
<path d="M211.517 166.212L222.223 166.372L202.334 173.874L192.941 173.837L211.517 166.212Z" fill="#E8B6C5"/>
<path d="M216.564 69.6133H97.5703V179.104H216.564V69.6133Z" fill="#0A8B65"/>
<path d="M97.5703 69.6132L138.958 44.5795H240.959L216.564 69.6132H97.5703Z" fill="#80C790"/>
<path d="M240.958 44.5795V135.936L216.562 179.104V69.6132L240.958 44.5795Z" fill="#A5D6AE"/>
<path d="M321.265 87.968H229.871V158.355H321.265V87.968Z" fill="#F5DC29"/>
<path d="M229.871 87.9681L261.657 71.8723H340L321.265 87.9681H229.871Z" fill="#EBC74C"/>
<path d="M340.001 71.8723V130.595L321.266 158.355V87.9681L340.001 71.8723Z" fill="#F5DC29"/>
<path d="M91.3935 106.974H0V192.4H91.3935V106.974Z" fill="#3990E0"/>
<path d="M0 106.974L31.7864 87.4524H110.129L91.3935 106.974H0Z" fill="#AEC6E8"/>
<path d="M110.13 87.4524V158.723L91.3945 192.412V106.974L110.13 87.4524Z" fill="#AEC6E8"/>
<path d="M275.433 124.886H184.039V191.664H275.433V124.886Z" fill="#FF1D25"/>
<path d="M184.039 124.886L215.825 109.625H294.168L275.433 124.886H184.039Z" fill="#FF719A"/>
<path d="M294.169 109.625V165.341L275.434 191.664V124.886L294.169 109.625Z" fill="#FF665A"/>
<path d="M178.746 43.9779L194.265 44.5304L165.437 70.0307L147.328 69.6624L178.746 43.9779Z" fill="#4DD0BE"/>
<path d="M165.809 69.6624H152.07V176.832H165.809V69.6624Z" fill="#4DD0BE"/>
<path d="M236.317 173.824H155.961V205.709H236.317V173.824Z" fill="#3990E0"/>
<path d="M155.961 173.824L183.904 166.544H252.781L236.305 173.824H155.961Z" fill="#AEC6E8"/>
<path d="M252.781 166.544V193.137L236.305 205.709V173.824L252.781 166.544Z" fill="#7DA4E0"/>
<path d="M242.124 171.418L242.062 201.289L247.71 197.102L247.575 168.643L242.124 171.418Z" fill="#E8B6C5"/>
<path d="M202.443 205.746H192.965L193.112 173.763H202.59L202.443 205.746Z" fill="#E8B6C5"/>
<path d="M247.661 168.705L242.358 171.369H170.215H163.598L175.568 168.656L247.661 168.705Z" fill="#E8B6C5"/>
<path d="M231.958 53.0263L223.462 61.5346H118.871H109.27L126.63 52.2897L231.958 53.0263Z" fill="#4DD0BE"/>
<path d="M168.055 40.4665C167.908 40.1595 167.797 39.9386 167.736 39.8403C165.882 36.7096 163.451 33.8489 160.32 32.0073C158.786 31.0988 157.03 30.4481 155.25 30.5586C150.597 30.8778 147.822 36.0589 148.215 40.3069C148.62 44.7513 152.414 47.3173 154.98 49.0484C158.687 51.553 162.346 52.0932 164.261 52.3634C167.883 52.8667 170.904 52.4493 172.831 52.0319C173.199 51.9459 169.295 43.0447 168.055 40.4665ZM171.64 40.9085C172.77 44.6654 176.637 51.8231 172.168 54.6224C161.794 60.135 146.815 59.5334 138.577 50.4972C131.591 42.2467 135.778 29.6255 145.047 25.1688C149.357 22.9097 154.746 22.0134 159.289 24.1252C166.042 27.1209 169.59 34.3032 171.652 40.9085H171.64Z" fill="#A0D8D0"/>
<path d="M185.305 52.744C185.6 52.744 185.809 52.744 185.907 52.744C189.001 52.5598 192.144 51.8232 194.833 50.178C196.159 49.3677 197.386 48.2995 198.049 46.9122C199.793 43.278 197.141 39.1896 193.838 37.8391C190.388 36.4272 186.877 38.3057 184.507 39.5702C181.082 41.3996 179.13 43.941 178.123 45.2915C176.22 47.833 175.238 50.2639 174.734 51.8845C174.636 52.1915 182.874 52.6826 185.305 52.744ZM183.451 55.2731C180.198 54.6715 173.273 54.8311 173.102 50.3744C173.433 40.4174 180.235 29.3677 190.401 26.6298C199.449 24.5426 207 32.5721 206.361 41.2891C206.202 45.402 204.581 49.8219 201.094 52.4248C196.011 56.3658 189.21 56.2553 183.464 55.2731H183.451Z" fill="#A0D8D0"/>
<path d="M149.467 64.2357C147.945 68.1645 148.178 72.8791 144.507 75.7151C143.66 76.3659 142.592 76.9306 142.211 77.8269C146.631 80.8226 154.022 80.221 157.644 76.5869C160.566 73.6525 160.873 69.601 161.511 65.8563C162.15 62.1117 163.623 57.9865 167.699 56.1694C168.497 55.8134 169.442 55.5187 169.872 54.8557C171.714 52.0319 160.222 54.6961 158.994 55.2118C154.574 57.078 150.977 60.3192 149.467 64.2112V64.2357Z" fill="#A0D8D0"/>
<path d="M191.371 64.162C193.74 69.3554 195.005 75.9238 198.676 79.251C199.523 80.0122 200.505 80.6138 201.082 81.7925C198.627 86.6912 192.795 87.1086 188.915 82.6764C185.784 79.0914 184.311 73.5297 182.666 68.4468C181.021 63.364 178.639 57.8882 174.968 56.0711C174.244 55.7151 173.433 55.4573 172.905 54.6224C170.634 51.0128 180.223 52.7685 181.328 53.2842C185.281 55.1258 189.026 59.0177 191.358 64.162H191.371Z" fill="#A0D8D0"/>
<path d="M206.484 165.979C207.724 166.249 209.676 166.519 212.009 166.2C213.249 166.028 215.606 165.672 217.988 164.027C219.645 162.885 222.089 161.203 222.347 158.293C222.592 155.506 220.812 152.105 217.816 151.897C216.674 151.823 215.545 152.253 214.55 152.842C212.537 154.058 210.965 155.924 209.774 157.986C209.738 158.048 209.664 158.195 209.566 158.404C208.768 160.098 206.251 165.942 206.484 165.991V165.979ZM207.258 158.686C208.583 154.365 210.867 149.65 215.226 147.673C218.148 146.286 221.622 146.875 224.397 148.361C230.376 151.283 233.065 159.57 228.559 164.985C223.243 170.915 213.605 171.307 206.914 167.686C204.029 165.844 206.521 161.154 207.258 158.686Z" fill="#FFC8BC"/>
<path d="M205.253 165.869C204.922 164.813 204.296 163.217 203.068 161.547C202.417 160.663 201.165 158.993 198.955 157.79C197.433 156.955 195.161 155.727 192.939 156.66C190.815 157.544 189.108 160.233 190.226 162.615C190.655 163.524 191.453 164.223 192.301 164.764C194.032 165.844 196.057 166.323 198.059 166.446C198.12 166.446 198.255 166.446 198.452 166.446C200.023 166.409 205.327 166.09 205.266 165.881L205.253 165.869ZM199.63 168.091C195.935 168.741 191.539 168.803 188.274 166.225C186.027 164.518 184.983 161.621 184.873 158.92C184.455 153.198 189.317 147.931 195.149 149.306C201.705 151.099 206.076 158.355 206.297 164.886C206.186 167.808 201.73 167.71 199.63 168.103V168.091Z" fill="#FFC8BC"/>
<path d="M221.533 173.984C222.515 176.562 222.356 179.656 224.725 181.522C225.265 181.952 225.953 182.32 226.198 182.91C223.35 184.874 218.586 184.481 216.254 182.099C214.375 180.172 214.167 177.52 213.761 175.052C213.356 172.584 212.399 169.883 209.771 168.692C209.256 168.459 208.654 168.263 208.372 167.833C207.181 165.979 214.584 167.722 215.382 168.066C218.23 169.294 220.551 171.418 221.521 173.972L221.533 173.984Z" fill="#FFC8BC"/>
<path d="M195.789 172.02C194.242 174.745 193.629 178.281 190.977 179.902C190.363 180.27 189.638 180.552 189.258 181.166C191.419 183.99 195.949 184.543 198.699 182.32C200.921 180.528 201.756 177.557 202.751 174.856C203.745 172.155 205.28 169.282 208.018 168.484C208.558 168.324 209.16 168.238 209.528 167.796C211.087 165.942 203.77 166.384 202.959 166.605C200.013 167.403 197.336 169.331 195.802 172.032L195.789 172.02Z" fill="#FFC8BC"/>
<path d="M162.737 146.703C162.983 146.863 163.241 147.035 163.535 147.047C163.793 147.059 164.051 146.949 164.284 146.839C167.685 145.23 171.012 143.474 174.266 141.584C174.941 141.191 175.653 140.761 175.997 140.061C176.476 139.104 181.227 144.96 180.699 144.027C179.607 142.05 172.694 133.591 170.914 132.191C168.385 130.215 165.856 128.25 163.339 126.274C163.143 126.126 162.934 125.967 162.688 125.955C162.394 125.942 162.148 126.139 161.927 126.323C159.447 128.41 149.097 134.721 149.109 138.244C149.122 141.768 160.184 144.997 162.737 146.703Z" fill="#A47137"/>
<path d="M65.7461 90.0306C61.1544 93.7262 57.9377 98.8459 55.2857 104.113C49.2943 116.022 45.783 129.171 45.0586 142.492C53.2477 143.082 61.449 143.352 69.6504 143.29C70.0678 150.239 70.473 157.176 70.8904 164.125C70.9641 165.341 71.05 166.605 71.7375 167.612C72.4742 168.692 73.7388 169.245 74.9542 169.736C88.1034 175.187 101.253 180.626 114.402 186.077C116.636 187.01 119.03 187.956 121.424 187.575C121.093 189.233 121.584 191.037 122.714 192.302C124.96 189.969 129.012 190.902 131.75 189.183C133.862 187.87 134.77 185.267 135.298 182.836C138.773 166.924 132.769 150.08 136.329 134.193C140.123 137.667 146.016 142.026 150.669 144.236C156.194 139.018 162.272 130.325 167.796 125.107C161.866 116.206 153.751 109.257 146.029 101.854C141.866 97.8637 136.98 94.2418 131.296 93.2719C125.034 92.2037 118.11 94.3646 112.511 91.3566C108.091 88.9871 104.997 83.6095 99.9757 83.499C88.128 83.2535 75.9242 81.8293 65.7461 90.0061V90.0306Z" fill="#EF93B1"/>
<path d="M97.9006 77.2252C96.7465 80 95.5556 82.8974 95.4205 86.0036C95.1504 91.8354 98.7477 96.9551 102.959 99.1405C107.17 101.326 119.239 99.1774 120 98.8581C121.805 98.1215 121.964 97.4953 121.78 95.1135C121.756 94.782 121.694 94.4383 121.522 94.1927C121.265 93.8121 120.81 93.7753 120.417 93.7139C116.501 93.1123 113.689 88.6678 112.167 84.0638C110.583 79.2879 109.883 69.3799 105.918 66.6789C101.743 63.8305 99.3739 73.6893 97.8883 77.2375L97.9006 77.2252Z" fill="#A47137"/>
<path d="M112.721 100.528C115.373 100.454 118.074 100.16 120.517 98.8705C122.96 97.5813 125.133 95.1627 125.894 91.9828C125.956 91.7372 126.005 91.4794 125.968 91.2339C125.821 90.1657 124.568 90.2639 123.746 90.6323C118.049 93.1492 112.094 94.5611 106.14 95.7274C104.077 96.1326 101.646 97.3849 104.568 99.251C106.877 100.724 110.216 100.614 112.733 100.54L112.721 100.528Z" fill="#A47137"/>
<path d="M138.269 29.2695C138.343 27.3296 136.734 25.6599 136.649 23.72C136.587 22.48 137.164 21.3137 137.533 20.135C137.901 18.9564 138.048 17.5445 137.262 16.5868C136.624 15.8011 135.531 15.5187 134.844 14.782C133.96 13.8244 133.96 12.3757 133.714 11.0988C133.469 9.82194 132.572 8.3732 131.283 8.50825C130.264 8.61875 129.552 9.67461 128.533 9.77283C127.526 9.87105 126.679 8.98707 126.274 8.06626C125.869 7.14545 125.709 6.10187 125.157 5.25472C124.604 4.40758 123.45 3.7937 122.591 4.33391C122.198 4.57946 121.965 4.99689 121.584 5.25472C120.823 5.77037 119.755 5.46344 119.067 4.84956C118.38 4.23569 117.975 3.38855 117.447 2.63962C116.685 1.54692 115.642 0.60156 114.365 0.196403C113.088 -0.208753 111.59 -0.0123139 110.608 0.883942C109.393 1.98891 108.914 4.08836 107.293 4.34619C106.372 4.49352 105.513 3.92875 104.739 3.4131C103.426 2.52912 102.026 1.65742 100.455 1.44871C98.883 1.23999 97.0905 1.86614 96.4153 3.29033C96.0347 4.08836 96.0347 5.03373 95.6418 5.81948C94.6842 7.74705 92.0199 7.8821 89.8959 7.58744C89.0242 7.46467 88.1525 7.31734 87.2931 7.48922C86.4337 7.66111 85.5866 8.22587 85.3778 9.06074C85.0341 10.3744 86.2741 11.7986 85.7339 13.0509C84.9236 14.9171 81.3754 13.9594 80.6264 15.8502C80.0003 17.4094 82.112 19.0055 81.67 20.6138C81.3999 21.596 80.3318 22.0626 79.411 22.5168C78.4902 22.9711 77.508 23.7691 77.6799 24.7636C77.8517 25.8686 79.325 26.4088 79.4601 27.5261C79.5951 28.6187 78.4042 29.3308 77.5202 29.9938C76.5258 30.7305 75.74 31.7863 75.4945 32.9895C75.2489 34.1927 75.6295 35.5555 76.5872 36.329C77.4957 37.0656 78.8339 37.2621 79.5338 38.2075C80.1845 39.0914 80.0126 40.3437 79.6197 41.3628C79.2268 42.3818 78.6375 43.364 78.5147 44.4567C78.392 45.5494 78.9322 46.8385 80.0003 47.0595C81.314 47.3296 82.6768 45.8932 83.9045 46.4702C84.8745 46.9245 84.9236 48.2381 85.0218 49.3063C85.12 50.3744 85.8321 51.7004 86.8634 51.418C87.7228 51.1847 88.0543 49.9447 88.9383 49.8219C90.0064 49.6746 90.4239 51.1847 91.271 51.86C92.0322 52.4739 93.1495 52.3634 94.0948 52.0687C96.4276 51.3443 98.4165 49.7851 100.7 48.9257C103.45 47.8821 106.569 47.8575 109.098 46.372C111.443 44.9969 113.039 42.48 115.531 41.3996C117.262 40.6384 119.227 40.6629 121.118 40.6998C124.789 40.7734 128.472 40.8348 132.069 41.5347C132.72 41.6574 133.444 41.7925 134.009 41.4487C135.089 40.7734 134.623 39.1283 134.058 37.9865C131.762 33.2474 138.134 33.3947 138.294 29.2695H138.269Z" fill="#4C3115"/>
<path d="M134.99 35.0153C136.917 40.0859 127.451 49.208 118.133 53.0263C109.01 56.7709 96.0209 57.1147 93.7618 52.1301C91.5273 47.1822 100.072 37.4585 109.33 33.3701C119.324 28.9625 133.013 29.8465 134.977 35.0153H134.99Z" fill="#EBC74C"/>
<path d="M117.654 43.3762C110.521 45.5493 104.051 51.4794 103.449 58.9072C102.811 55.2854 97.7035 53.6893 94.72 55.8501C91.7366 58.011 91.2823 62.6396 93.1976 65.7826C93.9834 67.0717 95.1006 68.1767 95.6654 69.5763C96.4757 71.553 96.0951 73.7752 96.0337 75.9115C95.7636 86.0896 104.309 95.58 114.413 96.8446C124.517 98.1092 134.916 91.3934 138.379 81.8293C140.024 77.2743 140.257 72.3019 142.013 67.7838C142.872 65.5739 144.075 63.5113 144.812 61.2522C146.58 55.8133 145.205 46.9858 139.864 43.7077C134.524 40.4296 123.363 41.6451 117.642 43.3885L117.654 43.3762Z" fill="#A47137"/>
<path d="M121.825 67.99C122.347 66.8119 122.041 65.5343 121.142 65.1363C120.242 64.7382 119.091 65.3706 118.569 66.5486C118.048 67.7266 118.354 69.0043 119.253 69.4023C120.152 69.8003 121.303 69.168 121.825 67.99Z" fill="black"/>
<path d="M137.791 69.7625C138.267 68.5651 137.911 67.3003 136.998 66.9374C136.084 66.5745 134.958 67.251 134.482 68.4483C134.007 69.6457 134.362 70.9105 135.276 71.2734C136.189 71.6363 137.316 70.9598 137.791 69.7625Z" fill="black"/>
<path d="M124.75 79.7421C126.555 79.9385 128.2 78.6985 129.415 77.3357" stroke="#643C0F" stroke-width="0.82" stroke-linecap="round" stroke-linejoin="round"/>
<path d="M123.77 60.2455C121.535 59.0546 118.54 59.472 116.723 61.24" stroke="#643C0F" stroke-width="0.82" stroke-linecap="round" stroke-linejoin="round"/>
<path d="M136.07 60.9208C137.826 60.8103 139.619 61.5224 140.846 62.7869" stroke="#643C0F" stroke-width="0.82" stroke-linecap="round" stroke-linejoin="round"/>
<path d="M127.859 84.9723C127.367 86.9122 125.771 88.6679 123.586 89.6869C122.616 90.1412 121.413 90.4481 120.357 90.1166C119.092 89.7237 118.54 88.5942 118.27 87.5629C118.024 86.6421 117.68 85.4634 117.865 84.5181C118.061 83.5113 118.712 83.6832 120.038 83.6709C122.727 83.6464 125.428 84.0884 127.871 84.9601L127.859 84.9723Z" fill="white"/>
<path d="M114.719 33.6033C112.153 34.4137 109.784 35.7765 107.513 37.2252C102.884 40.1718 98.3904 43.7077 95.8735 48.5819C94.7194 50.8286 93.5285 53.8121 94.1669 56.2553C95.1982 55.0766 97.5064 54.8065 98.9551 54.917C100.514 55.0398 101.644 56.4272 101.865 57.9864C101.975 58.7108 102.16 59.7421 102.896 59.6807C103.301 59.6561 103.559 59.2633 103.768 58.9072C104.505 57.6304 105.253 56.3535 105.99 55.0766C106.15 54.8065 106.322 54.5242 106.592 54.3645C106.837 54.2172 107.132 54.2049 107.402 54.1681C109.563 53.9103 111.49 52.6948 113.136 51.2829C114.781 49.871 116.242 48.2381 117.961 46.9121C118.133 46.7771 118.329 46.642 118.538 46.6052C118.832 46.5561 119.115 46.7034 119.397 46.8385C121.411 47.7838 123.891 47.6733 125.818 46.5684C126.543 47.2804 126.579 48.4345 127.083 49.3308C127.942 50.8532 129.943 51.2952 131.687 51.2215C134.646 51.111 137.556 49.9815 139.827 48.0908C140.048 50.092 141.091 51.9827 142.675 53.2227C143.044 53.5051 143.461 53.8121 143.535 54.2786C143.584 54.6346 143.4 54.9784 143.24 55.2976C141.853 58.0601 141.816 61.7924 144.075 63.9041C145.389 61.2031 146.408 58.3179 146.702 55.3222C147.144 51.0005 146.052 46.5561 143.67 42.9219C139.139 36.022 130.312 32.9895 122.393 32.6703C119.802 32.572 117.187 32.8176 114.707 33.6156L114.719 33.6033Z" fill="#4C3115"/>
<path d="M96.832 80.6261C97.1635 82.124 98.5263 89.0976 107.17 93.8367C107.17 93.8367 111.884 96.7833 119.472 96.8692C122.86 96.906 124.812 95.5309 125.917 94.868" stroke="#805320" stroke-width="0.82" stroke-linecap="round" stroke-linejoin="round"/>
<path d="M48.117 187.624C42.101 189.061 29.7376 192.179 24.1882 194.905C18.6388 197.63 14.1575 203.548 15.1397 209.65C15.9746 214.807 20.3085 218.637 24.7284 221.424C38.7616 230.288 55.7536 232.989 72.2913 234.438C90.4743 236.034 108.768 236.329 126.975 235.077C132.795 234.672 139.584 233.493 142.261 228.3C144.102 224.714 143.231 220.196 141.008 216.845C138.786 213.493 135.422 211.062 132.021 208.901C111.935 196.071 113.065 178.895 89.4921 179.619C81.4503 179.865 62.1256 184.297 48.117 187.624Z" fill="#A47137"/>
<path d="M43.0078 208.999C44.7389 208.791 46.4701 209.134 48.1766 209.478C54.1558 210.669 60.1472 211.872 66.1263 213.063" stroke="#805320" stroke-width="0.82" stroke-linecap="round" stroke-linejoin="round"/>
<path d="M161.239 225.328L205.291 182.615L137.875 153.591L64.1367 176.611" fill="#66C78A"/>
<path d="M61.9141 175.384L62.577 217.434L157.789 261.707L161.57 225.439L61.9141 175.384Z" fill="#0A8B65"/>
<path d="M107.516 198.306L159.572 163.597L170.253 167.6L116.859 202.971L107.516 198.306Z" fill="#FF7B80"/>
<path d="M119.68 185.955C120.097 186.716 120.552 187.514 121.19 188.091C121.571 188.435 122.172 188.238 122.283 187.747C122.577 186.519 122.614 185.23 122.406 183.978C123.277 186.102 124.542 188.054 126.113 189.724C126.568 190.215 127.402 189.982 127.525 189.319C127.844 187.612 127.255 185.709 126.666 184.015C127.427 185.427 128.188 186.851 128.949 188.263C129.269 188.864 129.612 189.478 130.202 189.834C130.558 190.043 131.098 190.092 131.319 189.748C131.417 189.601 131.442 189.405 131.442 189.22C131.528 187.6 131.049 183.757 131.147 183.745C131.712 183.671 132.94 186.765 134.094 188.754C134.094 188.754 134.511 189.466 135.211 189.761C135.432 189.847 135.604 189.859 135.751 189.81C135.96 189.724 136.07 189.515 136.107 189.429C136.647 188.3 135.825 185.316 135.825 185.316C135.604 184.494 135.481 184.076 135.321 183.646C134.45 181.289 132.363 178.109 128.851 175.875C127.636 175.101 126.285 174.475 124.836 174.033C123.253 173.554 121.583 173.395 119.938 173.616C118.722 173.775 117.421 174.131 116.475 174.966C113.369 177.766 118.256 183.376 119.668 185.979L119.68 185.955Z" fill="#A47137"/>
<path d="M205.291 182.615L201.841 220.098L157.789 261.707L161.129 225.218L205.291 182.615Z" fill="#7AC9B8"/>
<path d="M111.516 161.596L186.482 200.528L180.932 206.532L102.848 164.26L111.516 161.596Z" fill="#FF7B80"/>
<path d="M186.484 200.307L184.261 236.341L178.258 242.345L180.701 206.532L186.484 200.307Z" fill="#E61414"/>
<path d="M49.2573 154.647C49.7729 160.307 50.6692 166.016 53.0142 171.185C54.1683 173.726 55.7275 176.194 58.0234 177.79C60.3561 179.411 63.229 180 66.0528 180.295C70.3868 180.749 74.7699 180.565 79.1284 180.393C90.3991 179.926 101.682 179.472 112.953 179.005C113.751 178.969 114.586 178.944 115.322 179.251C116.845 179.889 117.446 181.67 118.33 183.069C119.214 184.469 121.191 185.635 122.406 184.518C123.524 185.574 124.813 186.433 126.212 187.06C125.881 186.151 125.77 181.571 126.704 181.854C127.637 182.136 128.717 181.891 129.65 182.136C130.927 182.455 133.456 186.433 133.751 185.156C134.144 185.893 134.991 186.36 135.826 186.311C135.863 184.936 135.396 183.597 134.929 182.296C133.432 178.085 131.897 173.788 129.11 170.288C126.323 166.789 122.014 164.187 117.569 164.629C115.224 164.862 113.051 165.893 110.755 166.446C108.152 167.072 105.451 167.047 102.787 166.9C92.2775 166.335 81.8785 163.855 72.2407 159.656C71.725 159.435 71.1726 159.165 70.9147 158.662C70.7428 158.342 70.7183 157.962 70.6937 157.594C70.4114 152.462 70.129 147.342 69.8466 142.21C63.1431 140.503 49.2204 143.143 49.0117 142.713C49.7606 148.643 48.7048 148.643 49.2573 154.672V154.647Z" fill="#A47137"/>
<path d="M148.901 172.94C151.528 175.224 152.56 178.784 153.923 181.989C158.392 192.535 167.465 200.602 177.557 206.04C187.649 211.479 198.797 214.561 209.846 217.606C205.819 223.155 201.792 228.705 197.765 234.254C197.839 231.848 195.936 229.871 194.07 228.336C186.789 222.382 178.072 218.527 169.994 213.738C161.915 208.95 154.082 202.799 150.35 194.168C148.164 189.098 147.219 183.008 142.799 179.705C139.386 177.152 134.905 176.82 132.105 173.542C135.997 169.957 144.592 169.208 148.901 172.953V172.94Z" fill="#FF665A"/>
<path d="M132.08 148.103C131.478 146.863 130.79 145.586 129.636 144.825C126.874 143.032 123.301 145.095 120.76 147.182C119.36 148.324 117.997 149.503 116.647 150.706C115.775 151.492 114.842 152.388 114.732 153.554C114.584 155.015 115.738 156.255 116.794 157.274C120.22 160.54 133.369 176.66 137.224 173.051C141.521 169.024 133.958 152.032 132.08 148.103Z" fill="#FF665A"/>
<path d="M146.298 159.693C150.116 155.691 155.592 152.597 161.006 153.738C164.972 154.573 168.213 157.557 170.276 161.031C172.339 164.506 173.419 168.484 174.463 172.388C174.806 173.677 175.15 175.052 174.72 176.317C174.34 177.422 173.431 178.257 172.437 178.87C168.508 181.314 163.487 180.761 158.907 180.135C154.684 179.558 150.472 178.969 146.249 178.392C131.479 176.354 139.202 167.121 146.286 159.693H146.298Z" fill="#FF665A"/>
<path d="M135.396 174.315C134.352 170.215 133.026 166.175 131.418 162.259C130.485 159.975 129.417 157.679 127.661 155.936C125.905 154.193 123.352 153.088 120.945 153.677C120.307 155.801 121.559 157.999 122.848 159.816C126.397 164.788 130.632 169.282 135.396 173.112" fill="#E61414"/>
<path d="M141.018 171.467C140.245 170.448 139.336 169.343 138.072 169.183C136.918 169.024 135.825 169.699 134.855 170.35C133.971 170.939 133.001 171.639 132.841 172.695C132.694 173.628 133.222 174.512 133.787 175.273C134.487 176.218 135.26 177.102 136.107 177.925C136.267 178.072 136.439 178.232 136.647 178.244C136.832 178.257 137.016 178.171 137.175 178.072C138.6 177.287 140.036 176.501 141.46 175.715C141.902 175.482 142.356 175.212 142.577 174.757C142.872 174.131 142.577 173.37 142.111 172.854C141.644 172.339 141.055 171.946 140.613 171.406C140.478 171.541 140.343 171.676 140.196 171.811" fill="#FF665A"/>
<path d="M183.535 151.664C183.289 153.468 182.626 155.752 178.747 158.478C174.179 161.694 169.293 164.469 164.198 166.765C163.989 168.864 163.056 170.988 162.43 173.051C162 174.451 161.718 175.924 161.128 177.25C160.539 178.588 159.569 179.816 158.255 180.258C156.942 180.7 155.284 180.086 154.818 178.699C154.13 179.497 153.332 180.258 152.338 180.479C151.356 180.688 150.165 180.16 149.919 179.104C148.974 180.123 147.537 180.712 146.273 180.258C145.008 179.791 144.161 178.109 144.75 176.82C143.866 178.072 142.97 179.337 142.086 180.589C141.595 181.301 140.883 182.087 140.085 181.854C139.029 181.547 139.078 179.939 139.348 178.809C140.416 174.426 141.521 169.957 143.805 166.151C145.855 162.726 148.777 160.356 152.092 159.423C153.725 158.478 155.935 157.188 158.538 155.629C164.554 152.02 165.806 151.062 165.806 149.822C165.806 147.305 160.711 146.409 160.907 144.26C161.092 142.394 164.947 143.045 168.802 139.239C170.435 137.63 171.687 135.605 173.308 135.85C173.86 135.936 174.241 136.255 174.474 136.464C179.508 140.872 181.153 144.027 181.153 144.027C182.884 147.354 183.879 149.233 183.535 151.664Z" fill="#A47137"/>
<path d="M107.514 198.306L106.176 237.68L115.077 242.124L116.857 202.971L107.514 198.306Z" fill="#E61414"/>
<path d="M130.251 166.421C131.946 166.753 133.922 167.33 133.885 168.496C133.861 169.245 132.928 169.945 131.823 170.288C130.718 170.632 129.502 170.669 128.336 170.608C125.267 170.46 116.636 168.545 117.593 165.746C118.551 162.947 127.968 165.967 130.251 166.421Z" fill="#A47137"/>
<path d="M117.839 170.62C112.989 172.867 110.914 178.478 108.901 183.425C104.554 194.107 98.4279 204.064 90.8281 212.732C94.5973 216.206 98.8453 219.153 103.413 221.461C107.44 214.168 110.128 206.139 111.295 197.888C111.577 195.85 111.786 193.788 112.289 191.786C114.843 181.842 125.082 175.273 135.297 174.254C133.284 168.926 122.037 168.656 117.826 170.608L117.839 170.62Z" fill="#FF665A"/>
<path d="M72.5855 121.559L69.8477 142.185" stroke="#E53C75" stroke-width="0.82" stroke-linecap="round" stroke-linejoin="round"/>
</g>
<defs>
<clipPath id="clip0_1_707">
<rect width="340" height="261.707" fill="white"/>
</clipPath>
</defs>
</svg>
