<svg width="56" height="56" viewBox="0 0 56 56" fill="none" xmlns="http://www.w3.org/2000/svg">
<g clip-path="url(#clip0_1_1321)">
<path fill-rule="evenodd" clip-rule="evenodd" d="M55.9738 28.003C55.9738 43.4223 43.4462 55.9219 27.9927 55.9219C12.5393 55.9219 0.0117188 43.4223 0.0117188 28.003C0.0117188 12.5838 12.5393 0.0839844 27.9927 0.0839844C43.4462 0.0839844 55.9738 12.5838 55.9738 28.003Z" fill="#332E3C"/>
<path fill-rule="evenodd" clip-rule="evenodd" d="M22.7472 49.0693H30.3806V31.4993H36.019L37.1467 24.4021H30.3806V19.0359C30.3806 17.0452 32.289 15.92 34.1106 15.92H37.4069V10.0346L31.5082 9.77493C25.8699 9.42875 22.7472 13.8428 22.7472 19.1225V24.4021H16.3281V31.4993H22.7472V49.0693Z" fill="white"/>
</g>
<defs>
<clipPath id="clip0_1_1321">
<rect width="56" height="56" fill="white"/>
</clipPath>
</defs>
</svg>
