<svg width="56" height="56" viewBox="0 0 56 56" fill="none" xmlns="http://www.w3.org/2000/svg">
<g clip-path="url(#clip0_1_1312)">
<path fill-rule="evenodd" clip-rule="evenodd" d="M55.9592 28.0028C55.9592 43.422 43.4591 55.9217 28.0399 55.9217C12.6209 55.9217 0.121094 43.422 0.121094 28.0028C0.121094 12.5835 12.6209 0.0837402 28.0399 0.0837402C43.4591 0.0837402 55.9592 12.5835 55.9592 28.0028Z" fill="#332E3C"/>
<path fill-rule="evenodd" clip-rule="evenodd" d="M19.9111 13.2815H36.1648C39.824 13.2815 42.8016 16.2597 42.8016 19.9188V36.0867C42.8016 39.7458 39.824 42.7241 36.1648 42.7241H19.9111C16.2531 42.7241 13.2743 39.7458 13.2743 36.0867V19.9188C13.2743 16.2597 16.2531 13.2815 19.9111 13.2815ZM27.9957 21.6207H28.0802C31.5693 21.6207 34.4624 24.5139 34.4624 28.0028C34.4624 31.5767 31.5693 34.4699 28.0802 34.4699H27.9957C24.5066 34.4699 21.6135 31.5767 21.6135 28.0028C21.6135 24.5139 24.5066 21.6207 27.9957 21.6207ZM27.9957 18.302H28.0802C33.3561 18.302 37.7814 22.7269 37.7814 28.0028C37.7814 33.3637 33.3561 37.7035 28.0802 37.7035H27.9957C22.7198 37.7035 18.3801 33.3637 18.3801 28.0028C18.3801 22.7269 22.7198 18.302 27.9957 18.302ZM37.6113 16.4299C38.7177 16.4299 39.6539 17.366 39.6539 18.4722C39.6539 19.5785 38.7177 20.5144 37.6113 20.5144C36.4206 20.5144 35.5688 19.5785 35.5688 18.4722C35.5688 17.366 36.4206 16.4299 37.6113 16.4299ZM19.8267 10.218H36.2492C41.5251 10.218 45.8648 14.5578 45.8648 19.8338V36.1717C45.8648 41.4476 41.5251 45.7875 36.2492 45.7875H19.8267C14.5508 45.7875 10.2109 41.4476 10.2109 36.1717V19.8338C10.2109 14.5578 14.5508 10.218 19.8267 10.218Z" fill="white"/>
</g>
<defs>
<clipPath id="clip0_1_1312">
<rect width="56" height="56" fill="white"/>
</clipPath>
</defs>
</svg>
