<svg width="64" height="64" viewBox="0 0 64 64" fill="none" xmlns="http://www.w3.org/2000/svg">
<g clip-path="url(#clip0_1_1364)">
<path d="M32 64C49.6731 64 64 49.6731 64 32C64 14.3269 49.6731 0 32 0C14.3269 0 0 14.3269 0 32C0 49.6731 14.3269 64 32 64Z" fill="#FFC65E"/>
<path d="M19.7096 43.448C20.0549 43.9195 20.4533 44.4242 21.0244 44.5238C21.3298 44.5769 21.6353 44.5038 21.9474 44.5038C23.1692 44.5038 24.0789 45.5862 24.7629 46.5889C26.3898 48.9728 27.8507 51.5493 30.1018 53.3488C30.3342 53.5348 30.5865 53.7207 30.8853 53.7804C31.4896 53.9066 32.0607 53.4883 32.5189 53.0832C32.9837 52.6781 33.4419 52.2465 33.7274 51.702C34.0129 51.1575 34.1059 50.4735 33.827 49.929C33.5614 49.4044 33.0169 49.099 32.5388 48.7603C31.2107 47.824 30.2146 46.5092 29.2385 45.2144C28.9463 44.8226 28.6342 44.3976 28.6209 43.9062C28.6077 43.5277 28.7737 43.1625 28.8799 42.7973C28.9862 42.432 29.0127 42.0004 28.767 41.7082C28.5877 41.4957 28.3022 41.4094 28.0366 41.3297C27.605 41.2036 27.18 41.0774 26.7484 40.9579C26.4495 40.8715 26.0976 40.7188 26.0777 40.4134C26.0644 40.2407 26.1707 40.0813 26.2769 39.9353C26.8745 39.0986 27.4788 38.2619 28.0764 37.4318C28.362 37.0334 28.6674 36.5221 28.4483 36.0772C28.3221 35.8116 28.03 35.6522 27.7511 35.5526C27.1667 35.3467 26.5292 35.3135 25.9117 35.3135C23.3485 35.3069 20.7919 35.7717 18.3881 36.6615C17.8503 36.8608 17.2991 37.0932 16.914 37.5182C16.1038 38.3947 16.6351 39.2513 17.2128 40.0282C18.0495 41.1637 18.8862 42.3125 19.7162 43.4547L19.7096 43.448Z" fill="#4B4B4B"/>
<path d="M23.1036 25.705C23.1036 25.705 34.1731 24.284 40.2491 15.2996L45.588 38.096C45.588 38.096 35.5012 33.8661 26.55 38.5542C22.9509 36.7812 20.7928 33.4145 21.0849 30.1143C21.2775 27.9694 22.4529 26.4355 23.1036 25.7117V25.705Z" fill="#8C8C8C"/>
<path d="M51.7496 40.8764C55.2952 39.8971 56.2952 32.3172 53.9832 23.9463C51.6712 15.5753 46.9226 9.58323 43.377 10.5625C39.8313 11.5418 38.8313 19.1217 41.1433 27.4926C43.4554 35.8636 48.2039 41.8557 51.7496 40.8764Z" fill="white" stroke="#8C8C8C" stroke-width="2.61" stroke-miterlimit="10"/>
<path d="M46.4752 26.5416L46.2229 25.6053C46.0237 24.8682 45.2534 24.4233 44.5163 24.6226L41.4883 25.4393C41.7805 26.6545 42.1258 27.8631 42.5308 29.0517L45.4924 28.2548C46.2295 28.0556 46.6744 27.2853 46.4752 26.5483V26.5416Z" fill="#4B4B4B"/>
<path d="M46.3772 28.7369C47.3232 28.4986 47.8075 27.1839 47.459 25.8005C47.1105 24.4171 46.0611 23.4889 45.1152 23.7272C44.1692 23.9655 43.6849 25.2801 44.0334 26.6635C44.3819 28.0469 45.4313 28.9752 46.3772 28.7369Z" fill="#4B4B4B"/>
<path d="M11.1462 41.4808C13.9565 41.2927 16.0617 38.5565 15.8483 35.3693C15.635 32.1822 13.1838 29.751 10.3736 29.9391C7.56332 30.1273 5.45812 32.8635 5.67149 36.0506C5.88486 39.2378 8.33599 41.669 11.1462 41.4808Z" fill="#4B4B4B"/>
<path d="M24.1528 25.2268C23.8606 25.3596 23.4622 25.4991 23.2232 25.7248C22.2736 26.6412 21.9283 27.8033 21.822 29.1048C21.4967 33.1621 24.0001 35.8448 26.809 38.388C26.9218 38.4212 21.2045 39.9021 18.8803 40.493C16.8351 41.011 14.7965 41.5356 12.7513 42.0535C12.7513 42.0535 3.36177 38.0494 9.56389 29.0583C14.4114 27.79 19.3717 26.7408 24.1462 25.2268" fill="#4B4B4B"/>
<path d="M24.0977 25.1936C22.5106 26.1166 21.5743 27.9494 21.5013 29.7821C21.4282 31.6149 22.1321 33.421 23.2278 34.8952C24.3234 36.3694 25.7777 37.5314 27.3183 38.5275" stroke="white" stroke-miterlimit="10"/>
</g>
<defs>
<clipPath id="clip0_1_1364">
<rect width="64" height="64" fill="white"/>
</clipPath>
</defs>
</svg>
