<svg width="56" height="56" viewBox="0 0 56 56" fill="none" xmlns="http://www.w3.org/2000/svg">
<g clip-path="url(#clip0_1_1330)">
<path fill-rule="evenodd" clip-rule="evenodd" d="M55.99 28.003C55.99 43.4223 43.4622 55.9219 28.0087 55.9219C12.5552 55.9219 0.0273438 43.4223 0.0273438 28.003C0.0273438 12.5838 12.5552 0.0839844 28.0087 0.0839844C43.4622 0.0839844 55.99 12.5838 55.99 28.003Z" fill="#332E3C"/>
<path fill-rule="evenodd" clip-rule="evenodd" d="M42.7579 19.3893C41.0368 19.1552 39.5522 18.2192 38.3015 16.8153C36.8157 15.1771 35.9557 12.993 36.0341 10.887H29.858V35.4579C29.858 38.344 27.5134 40.6841 24.5417 40.6841C22.8219 40.6841 21.2589 39.826 20.2421 38.5001C19.6174 37.6419 19.3038 36.55 19.3038 35.4579C19.3038 32.5718 21.6496 30.2317 24.5417 30.2317C25.0893 30.2317 25.6368 30.3097 26.106 30.4657V24.2255C25.6368 24.1475 25.0893 24.0694 24.5417 24.0694C24.4646 24.0694 24.3861 24.0694 24.3077 24.0694C18.0532 24.2255 13.1289 29.2957 13.1289 35.4579C13.1289 38.4221 14.3012 41.1522 16.1778 43.1802C18.2884 45.3643 21.2589 46.7683 24.5417 46.7683C30.8747 46.7683 36.0341 41.6981 36.0341 35.4579V22.6655C38.3799 24.7715 41.4288 25.7856 44.5549 25.5515V19.3893C43.9301 19.5454 43.3042 19.5454 42.7579 19.3893Z" fill="white"/>
</g>
<defs>
<clipPath id="clip0_1_1330">
<rect width="56" height="56" fill="white"/>
</clipPath>
</defs>
</svg>
